<svg fill="none" height="32" viewBox="0 0 112 32" width="112" xmlns="http://www.w3.org/2000/svg" xmlns:xlink="http://www.w3.org/1999/xlink"><clipPath id="a"><path d="m9.6001 6.3999h19.2v19.2h-19.2z"/></clipPath><rect fill="#000" height="32" rx="6.4" width="112"/><g fill="#fff"><path d="m33.8126 5.78499c.3277-.02351.6565.02599.9627.14494.3063.11895.5823.30438.8082.54291.2259.23854.396.52423.4981.83648s.1336.64327.0923.96918c0 1.6032-.8665 2.5248-2.3613 2.5248h-1.8126v-5.01831zm-1.0332 4.30861h.9462c.2341.014.4684-.0244.6859-.11241.2174-.08799.4125-.22335.571-.39623.1586-.17289.2765-.37895.3454-.60318.0688-.22423.0868-.461.0526-.69306.0317-.23114.0119-.46643-.058-.68902s-.1882-.42696-.3463-.59847c-.1582-.17151-.3523-.30592-.5685-.39358-.2163-.08767-.4492-.12643-.6821-.1135h-.9462z"/><path d="m37.0543 8.90831c-.0238-.24887.0047-.49997.0836-.7372.079-.23723.2066-.45534.3747-.64035.1682-.18501.3732-.33284.6018-.43399.2286-.10116.4759-.15341.7259-.15341s.4973.05225.7259.15341c.2286.10115.4336.24898.6017.43399.1682.18501.2958.40312.3748.64035.0789.23723.1074.48833.0835.7372.0243.24913-.0038.50058-.0825.7382-.0788.23761-.2063.45609-.3745.64149s-.3733.3335-.6022.4349-.4764.1537-.7267.1537-.4979-.0523-.7267-.1537c-.2289-.1014-.434-.2495-.6022-.4349s-.2958-.40388-.3745-.64149c-.0787-.23762-.1068-.48907-.0826-.7382zm2.8032 0c0-.8209-.3688-1.30095-1.016-1.30095-.6496 0-1.0151.48005-1.0151 1.30096 0 .82748.3655 1.30388 1.0151 1.30388.6472-.0001 1.016-.4797 1.016-1.30389z"/><path d="m45.3744 10.8037h-.7753l-.7827-2.7892h-.0591l-.7795 2.7892h-.7679l-1.0439-3.7871h.7581l.6784 2.88977h.0558l.7787-2.88977h.717l.7786 2.88977h.0591l.6751-2.88977h.7474z"/><path d="m47.292 7.01628h.7195v.60161h.0558c.0948-.21607.2546-.39721.4571-.51815.2026-.12095.4379-.17567.673-.15656.1843-.01385.3693.01393.5414.08129.1721.06737.3268.17258.4527.30786.1259.13527.2197.29713.2745.4736.0549.17646.0693.363.0423.5458v2.45157h-.7474v-2.26389c0-.60859-.2645-.91125-.8172-.91125-.1252-.00582-.25.01547-.3662.06242-.1161.04696-.2206.11846-.3065.20962-.0859.09115-.1511.1998-.1911.3185-.0399.11869-.0538.24462-.0405.36917v2.21553h-.7474z"/><path d="m51.6987 5.53809h.7474v5.26541h-.7474z"/><path d="m53.486 8.90838c-.0238-.24889.0047-.5.0836-.73724s.2066-.45536.3748-.64037c.1681-.18502.3731-.33284.6018-.434.2286-.10116.4759-.15341.7259-.15341s.4973.05225.726.15341c.2286.10116.4336.24898.6018.434.1681.18501.2958.40313.3747.64037.079.23724.1075.48835.0837.73724.0242.24914-.004.5006-.0827.73821s-.2063.45611-.3745.64151c-.1682.1853-.3734.3335-.6022.4348-.2289.1014-.4765.1538-.7268.1538s-.4978-.0524-.7267-.1538c-.2289-.1013-.434-.2495-.6022-.4348-.1683-.1854-.2958-.4039-.3746-.64151-.0787-.23761-.1069-.48907-.0826-.73821zm2.8031 0c0-.8209-.3688-1.30095-1.016-1.30095-.6496 0-1.0151.48005-1.0151 1.30096 0 .82748.3655 1.30381 1.0151 1.30381.6472 0 1.016-.47963 1.016-1.30382z"/><path d="m57.8447 9.73254c0-.6817.5076-1.07469 1.4086-1.13054l1.0258-.05914v-.32688c0-.39998-.2645-.62584-.7753-.62584-.4172 0-.7063.15318-.7893.42093h-.7236c.0764-.65049.6883-1.06771 1.5474-1.06771.9494 0 1.4849.47266 1.4849 1.27262v2.58752h-.7195v-.5322h-.0591c-.12.1909-.2886.3466-.4884.451-.1999.1045-.4239.154-.6491.1436-.159.0166-.3197-.0004-.4717-.0498-.152-.0493-.292-.13-.411-.2368-.1189-.1068-.2141-.2373-.2795-.3831-.0654-.1459-.0995-.30382-.1002-.46366zm2.4344-.3236v-.31662l-.9248.05914c-.5215.0349-.7581.2123-.7581.54617 0 .34087.2957.53917.7023.53917.1191.0121.2394 0 .3538-.0354s.2205-.0934.312-.1706c.0915-.07728.1665-.17214.2206-.27896.0541-.10683.0861-.22344.0942-.3429z"/><path d="m62.0054 8.90836c0-1.19665.6151-1.95473 1.572-1.95473.2366-.0109.4715.04579.6772.16344.2056.11766.3736.29142.4841.50097h.0559v-2.07995h.7473v5.26541h-.7161v-.5983h-.0592c-.1191.2081-.2928.3797-.5025.4962-.2096.1165-.4471.1734-.6867.1645-.9634.0001-1.572-.758-1.572-1.95754zm.772 0c0 .80325.3787 1.28664 1.0119 1.28664.6299 0 1.0192-.49036 1.0192-1.28335 0-.78929-.3934-1.28659-1.0192-1.28659-.6292 0-1.0119.48662-1.0119 1.2833z"/><path d="m68.6344 8.90831c-.0238-.24887.0047-.49997.0836-.7372s.2066-.45534.3747-.64035c.1682-.18501.3731-.33284.6018-.43399.2286-.10116.4759-.15341.7259-.15341s.4972.05225.7259.15341c.2286.10115.4336.24898.6017.43399.1682.18501.2958.40312.3747.64035.079.23723.1074.48833.0836.7372.0243.24913-.0039.50058-.0826.7382-.0787.23761-.2062.45609-.3744.64149s-.3734.3335-.6022.4349c-.2289.1014-.4764.1537-.7267.1537s-.4979-.0523-.7267-.1537c-.2289-.1014-.434-.2495-.6022-.4349s-.2958-.40388-.3745-.64149c-.0787-.23762-.1068-.48907-.0826-.7382zm2.8032 0c0-.8209-.3688-1.30095-1.016-1.30095-.6497 0-1.0151.48005-1.0151 1.30096 0 .82748.3655 1.30388 1.0151 1.30388.6472-.0001 1.016-.4797 1.016-1.30389z"/><path d="m73.209 7.01628h.7195v.60161h.0558c.0948-.21607.2546-.39721.4571-.51815.2026-.12095.4379-.17567.673-.15656.1843-.01385.3693.01393.5414.08129.1721.06737.3268.17258.4527.30786.1259.13527.2197.29713.2745.4736.0549.17646.0693.363.0423.5458v2.45157h-.7474v-2.26389c0-.60859-.2645-.91125-.8172-.91125-.1252-.00582-.2501.01547-.3662.06242-.1161.04696-.2207.11846-.3065.20962-.0859.09115-.1511.1998-.1911.3185-.0399.11869-.0538.24462-.0405.36917v2.21553h-.7474z"/><path d="m80.6487 6.07373v.96012h.8205v.62954h-.8205v1.94733c0 .39668.1635.57038.5355.57038.0953-.0003.1904-.006.285-.0172v.6225c-.1342.024-.2702.0368-.4065.0382-.8312 0-1.1622-.2924-1.1622-1.02252v-2.13873h-.6012v-.62954h.6012v-.96008z"/><path d="m82.4897 5.53809h.7409v2.08696h.0591c.0994-.2181.2635-.40025.4702-.52165.2066-.1214.4457-.17614.6845-.15676.1833-.00997.3666.02063.5367.08963s.3229.1747.4475.30954c.1246.13485.2179.29553.2732.47058s.0713.36014.0469.54209v2.44502h-.7482v-2.26064c0-.6049-.2817-.91125-.8098-.91125-.1284-.01054-.2576.00712-.3786.05174-.1209.04462-.2306.11512-.3214.20657-.0908.09146-.1606.20165-.2044.32287s-.0605.25055-.0491.37893v2.21178h-.7474z"/><path d="m90.1067 9.78106c-.1015.34614-.3215.64554-.6215.84584-.3.2002-.6609.2887-1.0195.2498-.2495.0066-.4974-.0412-.7266-.1401-.2292-.0988-.4341-.2463-.6005-.4323-.1665-.186-.2905-.40598-.3634-.64468s-.093-.49041-.0589-.73765c-.0332-.24801-.0127-.50026.06-.73967.0727-.23942.1961-.46042.3616-.64803.1656-.18761.3696-.33745.5981-.43939s.4762-.15359.7265-.15146c1.0537 0 1.6894.71992 1.6894 1.90913v.26079h-2.6742v.04189c-.0117.13897.0058.27886.0513.41069s.1181.2527.213.35484c.095.10214.2102.18334.3384.23834s.2664.0826.4059.0811c.1788.0214.3599-.0108.5203-.0925.1604-.0818.2929-.20941.3807-.36667zm-2.629-1.22047h1.9128c.0094-.1271-.0078-.25477-.0507-.3748-.0428-.12003-.1103-.22977-.1981-.32216s-.194-.1654-.3117-.21433c-.1176-.04892-.2443-.07269-.3717-.06977-.1292-.00162-.2575.02265-.3773.07138-.1197.04873-.2285.12094-.3199.21237-.0913.09144-.1635.20024-.2122.32-.0487.11975-.0729.24805-.0712.37731z"/><path d="m38.6231 21.081h-3.9809l-.956 2.8228h-1.6862l3.7707-10.4438h1.7518l3.7707 10.4438h-1.7149zm-3.5686-1.3026h3.1555l-1.5556-4.5813h-.0435z"/><path d="m49.4367 20.0972c0 2.3662-1.2664 3.8864-3.1776 3.8864-.4842.0254-.9657-.0862-1.3894-.3218s-.7725-.5857-1.0064-1.0103h-.0362v3.7714h-1.5629v-10.1333h1.5128v1.2664h.0288c.2447-.4225.5994-.7709 1.0263-1.0079.4269-.2371.9101-.3539 1.3982-.3382 1.9325 0 3.2064 1.5276 3.2064 3.8873zm-1.6065 0c0-1.5416-.7967-2.5551-2.0122-2.5551-1.1942 0-1.9974 1.0348-1.9974 2.5551 0 1.5342.8032 2.5617 1.9974 2.5617 1.2156 0 2.0122-1.0061 2.0122-2.5617z"/><path d="m57.8176 20.0972c0 2.3662-1.2665 3.8864-3.1777 3.8864-.4841.0254-.9656-.0862-1.3893-.3218s-.7725-.5857-1.0065-1.0103h-.0361v3.7714h-1.563v-10.1333h1.5129v1.2664h.0287c.2447-.4226.5994-.7709 1.0263-1.0079.427-.2371.9102-.3539 1.3982-.3382 1.9326 0 3.2065 1.5276 3.2065 3.8873zm-1.6065 0c0-1.5416-.7967-2.5551-2.0122-2.5551-1.1942 0-1.9975 1.0348-1.9975 2.5551 0 1.5342.8033 2.5617 1.9975 2.5617 1.2155 0 2.0122-1.0062 2.0122-2.5617z"/><path d="m63.3563 20.9937c.1158 1.0357 1.1219 1.7157 2.4968 1.7157 1.3174 0 2.2652-.68 2.2652-1.6139 0-.8106-.5717-1.296-1.9252-1.6286l-1.3535-.3261c-1.9178-.4632-2.8081-1.3601-2.8081-2.8155 0-1.8019 1.5704-3.0397 3.8002-3.0397 2.2069 0 3.7198 1.2378 3.7707 3.0397h-1.5778c-.0944-1.0422-.956-1.6713-2.2151-1.6713-1.259 0-2.1206.6365-2.1206 1.5629 0 .7384.5503 1.1729 1.8964 1.5055l1.1507.2825c2.1428.5067 3.0331 1.3675 3.0331 2.8951 0 1.9539-1.5564 3.1777-4.0318 3.1777-2.3162 0-3.8799-1.195-3.981-3.0841z"/><path d="m73.1418 14.4873v1.802h1.448v1.2377h-1.448v4.1977c0 .6521.29.956.9265.956.1719-.003.3435-.015.5141-.0361v1.2303c-.2862.0535-.577.0777-.8681.0723-1.5416 0-2.1428-.5791-2.1428-2.0558v-4.3644h-1.1071v-1.2377h1.1071v-1.802z"/><path d="m75.4287 20.0966c0-2.3958 1.411-3.9013 3.6113-3.9013 2.2077 0 3.6122 1.5054 3.6122 3.9013 0 2.4023-1.3971 3.9012-3.6122 3.9012-2.2143 0-3.6113-1.4989-3.6113-3.9012zm5.6309 0c0-1.6435-.7531-2.6135-2.0196-2.6135-1.2664 0-2.0188.9774-2.0188 2.6135 0 1.65.7524 2.6126 2.0188 2.6126 1.2665 0 2.0196-.9626 2.0196-2.6126z"/><path d="m83.9404 16.2895h1.4907v1.296h.0362c.1008-.4048.338-.7625.6715-1.013.3336-.2505.7432-.3786 1.16-.3627.1801-.0006.3598.019.5355.0583v1.462c-.2274-.0695-.4646-.1014-.7022-.0945-.2271-.0092-.4535.0309-.6636.1174s-.399.2175-.5538.3839c-.1547.1664-.2716.3644-.3426.5803-.071.2158-.0944.4445-.0687.6703v4.5164h-1.563z"/><path d="m95.0405 21.6669c-.2102 1.3823-1.5564 2.3309-3.2787 2.3309-2.215 0-3.5899-1.4841-3.5899-3.8651 0-2.3884 1.3822-3.9374 3.5242-3.9374 2.1067 0 3.4315 1.4472 3.4315 3.7559v.5355h-5.378v.0944c-.0248.2803.0103.5626.1029.8282.0927.2656.2408.5085.4346.7125.1937.204.4286.3644.6891.4706.2605.1063.5406.1558.8218.1455.3693.0346.74-.0509 1.0568-.2439s.5629-.4831.7016-.8271zm-5.2835-2.2726h3.8068c.014-.2519-.0242-.5041-.1122-.7406s-.224-.4522-.3994-.6337-.3863-.3247-.6197-.4208-.4841-.1428-.7364-.1374c-.2545-.0015-.5068.0474-.7423.1439s-.4496.2387-.6299.4183c-.1803.1797-.3232.3933-.4205.6285s-.147.4873-.1464.7418z"/></g><g clip-path="url(#a)"><path d="m19.404 10.8307c.8408 0 1.8948-.5859 2.5224-1.3671.5684-.70794.9829-1.69663.9829-2.68531 0-.13427-.0118-.26853-.0355-.37839-.9355.03662-2.0605.64692-2.7355 1.46472-.5329.6225-1.0185 1.59898-1.0185 2.59988 0 .1465.0237.2929.0356.3418.0592.0122.1539.0244.2486.0244zm-2.9605 14.7692c1.1487 0 1.6579-.7934 3.0908-.7934 1.4566 0 1.7763.769 3.0553.769 1.2552 0 2.096-1.1962 2.8894-2.368.8882-1.3426 1.2553-2.6609 1.279-2.7219-.0829-.0244-2.4868-1.0375-2.4868-3.8815 0-2.4656 1.8947-3.5764 2.0013-3.6618-1.2553-1.8553-3.1619-1.9041-3.6829-1.9041-1.4092 0-2.5579.8788-3.2803.8788-.7816 0-1.8118-.83-3.0316-.83-2.321 0-4.6776 1.9774-4.6776 5.7124 0 2.3191.8763 4.7725 1.9539 6.3593.9237 1.3427 1.729 2.4412 2.8895 2.4412z" fill="#fff"/></g></svg>