<svg enable-background="new 0 0 878 567" viewBox="0 0 878 567" xmlns="http://www.w3.org/2000/svg"><g fill="#f33c32"><path d="m307.6 188.4c4.1-.3 8.3-.6 12.4-1 2-.2 4.4-.5 5.9-1.6 7.4-5.9 14.7-11.9 22.2-17.6 3.1-2.3 2.5-6.3-.6-8.8-1-.8-2.3-1.4-3.5-1.8-6.5-2-12.6-5.1-18.7-8-2-1-4.2-2.1-6.5-1.6-11.9 2.6-24.1 1.9-36.1 3.1-11.7 1.2-23.4 1.4-35.2 2-.6 0-1.1 0-1.7.1-9.7 1.7-19.7.4-29.3 2.3-2.3.5-4.4-.9-6.7-.4-6.4 1.4-11.6 4.7-15.2 10.1-5.7 8.4-4 21.4 7.5 26 4.5 1.8 9.2 3.3 14.3 3 9.3-.5 18.5-1.1 27.8-1.6h.6c9.3-1.7 18.8-1.1 28.2-2.1 11.5-1.2 23.1-1.1 34.6-2.1zm25.7-23c-2.5 2.1-4.8 4-7.7 6.5l-.1-10.4c2.8.8 5.2 2 7.8 3.9zm-127 4.2.1 10.5c-4.4-3.3-4.5-5.9-.1-10.5zm12.4 13.4c-1-5.4-.6-10.4-.9-15.7 4.2-.7 8.2-1.6 12.4-1.6 10.4.2 20.8-1.3 31.2-1.8 6.6-.3 13.3-.2 19.8-1.2 8.8-1.4 17.8-.1 26.5-2.1 1.8-.4 3.7-.5 5.6.2 1.3 4.9 1.8 9.7 1.5 15-2.6.5-5.4 1.4-8.1 1.4-9.9-.1-19.7 1.2-29.5 1.8-10.4.6-20.7 1.2-31.1 2.1-9 .7-18.1.7-27.4 1.9z"/><path d="m839.6 214.5c-3.9.5-7.8 1.4-11.3 3.7-6.3 4.1-12.6 8.3-18.9 12.4-.1.1-.3.2-.4.3-5.9 5-12.9 8.4-19.1 12.9-7.6 5.5-15.8 10.2-23.6 15.5-2.8 1.9-5.6 3.8-8.3 5.8-1.3 1-2.9 2.1-3.5 3.6-2.8 7.1-5.5 14.3-8.5 21.4-1.2 2.9.8 5.5 4 6 1 .2 2.2.1 3.2-.1 5.4-1.2 10.9-1.5 16.4-2 1.8-.2 3.8-.3 5.2-1.5 7.4-6.6 16.2-11.1 24.2-16.9 7.7-5.6 16-10.5 24-15.7.4-.3.8-.5 1.2-.7 6.2-5.1 13.7-8.3 19.8-13.6 1.4-1.3 3.5-1.1 4.9-2.4 3.9-3.6 6.3-8 6.6-13.3.7-8.4-5.8-16.8-15.9-15.4zm-82 71.6c.9-2.5 1.7-4.8 2.8-7.7l4.3 7.3c-2.3.4-4.5.6-7.1.4zm72.7-42.2c-7.4 4.1-14.1 9.4-21.3 14-4.5 2.9-9.3 5.5-13.5 8.9-5.6 4.6-12.5 7.3-17.9 12.2-1.1 1-2.4 1.9-4 2.2-2.9-2.9-5.2-6.1-7.2-10 1.7-1.4 3.2-3.2 5.1-4.2 7-3.9 13.4-8.8 20.1-13.2 7-4.7 14.1-9.3 21.1-14.1 6-4.2 12.5-7.9 18.6-12.5 2.9 3.4 4.7 7.1 7 10.7-2.7 2.1-5.1 4.4-8 6zm15.3-12.5-4.3-7.4c4.3.6 5.5 2.4 4.3 7.4z"/><path d="m84.4 259.7c-5-4.9-9.4-10.4-14.3-15.4-4.6-4.7-8.5-10.1-14.5-14.8-12.5 6.3-22.4 15-28.1 27.8-4.7 10.5-3.2 22.3 5.6 31.4 8.2 8.4 16.4 16.9 24.5 25.3 4.8 5 9.6 10.2 14.4 15.2 7.1 7.3 14.2 14.7 21.7 21.7 5.8 5.5 13 8.5 20.9 9.1 15.5 1.2 27.6-7.7 34.7-20.3 2.1-3.8 1.5-6.5-1.6-9.6-8.1-8.2-16.7-16-24.2-24.8-2.2-2.6-5.6-4-9.1-2-2.3 1.3-4.7 1.3-7.2 1.2-5.6-.2-10.7-2.1-15.3-5.3-8.6-6.1-14.5-17.2-6.4-28.9 3.4-4.6 3.1-6.6-1.1-10.6zm26.4 56.4c1.9-.1 3.8-.1 5.7-.2.2 0 .4.1 1.1.2 5.5 6.2 12 12 18.1 18.2 2 2 1.9 3.1 0 5.4-6.5 7.7-16.1 11.9-26.9 7.3-5-2.1-9.3-5.2-12.6-9.4-1.6-2.1-3.6-3.9-5.4-5.8-9-9.2-18.1-18.4-27-27.7-7.5-7.7-15.1-15.5-22.5-23.4-4.6-4.9-6-10.8-3.7-17.3 3-8.3 8.5-14.5 16.5-19.5 7 7.6 13.5 14.7 20.2 21.8-.8 3.9-2.8 7.4-3.5 11.3-1.8 9.9 1.4 18.3 7.7 25.5 8.5 9.7 19.3 14.3 32.3 13.6z"/><path d="m114.2 257.2c-2.4 4.9-4.6 9.9-6.9 14.9-1.4 2.9-3.2 5.9-.7 9 2.7 3.3 6.3 1.9 9.5 1.2 4.4-1 8.6-2.7 13-3.9 5.6-1.6 10.9-4.4 14.5-3.6 10 .8 16.8-1.3 22.9-5.4 15-10.3 22.5-29.1 16.8-47.4-3.4-10.9-10.3-19.5-21.9-22.6-13.8-3.7-26 .2-35.6 10.4-10.5 11.1-13.3 24.7-10.6 39.5.5 3 .3 5.3-1 7.9zm13.7-7.7c-3.4-6.3-3-12.9-1-19.3 2.8-9 8.3-16 17.7-19.3 13.5-4.6 23.4 2.8 27.4 13.2 5.1 13.4-1.9 29.1-11.3 35.3-5.5 3.7-11.3 5.2-17.7 3.8-1.6-.4-2.8-.3-4.3.2-5.1 1.7-10.4 3.1-16.7 4.9 2.2-4.7 3.9-8.5 5.6-12.3 1-2.2 1.5-4.4.3-6.5z"/><path d="m486.3 469.8c-3.3 2.1-7.1 2.1-10.9 2-5.1-.2-10.1-.2-14.9-2.4-2.9-1.3-6.1-1.9-8.8-3.8-2-1.4-5.6-.4-6.7 1.3-1 1.7-.5 5.2 1.1 6.8 1.2 1.2 2.6 2.2 4.2 2.8 3.7 1.4 7.3 2.9 10.9 4.4.8 2.4.2 4.1-.4 5.6-2.8 7.6-7 14.3-12.6 20.1-13.2 13.6-29.6 21.3-48 24.5-11.8 2-23.7 1.7-35.2-2.1-1.6-.5-3.2-1.1-5-.9-2.4.2-3.9 1.3-4.8 3.4-.8 2 .1 4.5 1.9 6.1 1.5 1.3 3.3 1.9 5.1 2.5 11.9 3.8 24.1 3.9 36.3 2.8 9.7-.9 18.9-3.8 27.7-7.7 13.8-6.1 25.8-14.7 35-27 5.6-7.6 9.1-16 11.4-24.8 4.6-.7 9.1-1.4 13.6-2.1 2.5-.4 4.7-1.5 6.3-3.5 1.5-1.9 1.5-5.8-.2-7.4s-3.7-2.1-6-.6z"/><path d="m598.9 506.3c-5.4.9-9.7 4-14.1 6.4-2.1-.5-3.5-1.8-5.1-2.7-4.8-2.7-9.7-4.3-15.5-3.4-10.6 1.6-14.1 10.8-11.2 19.4 2.1 5.9 5.6 11.2 10.7 15 4.8 3.6 10 6.7 15 10 5.3 3.5 13.3 2.9 18.2-2 3-2.9 5.8-6 8.9-8.8s6.2-5.5 8.6-8.8c4.8-6.5 4.5-13.4 1.6-17.9-3.4-5.6-10-8.4-17.1-7.2zm5.2 20.7c-5.1 4.2-9.7 8.9-14.5 13.6-1.7 1.7-3.6 1.9-5.6.5-4.7-3.1-9.4-6.2-14-9.4-2.8-2-4.6-5-6.2-8-2.3-4.2-.4-6.9 4-6.9 5.3 0 8.2 3.3 10.9 6.7 2.6 3.2 5.1 3.8 8.8 2.6 1.8-.6 2.6-2 3.5-3.4 2.9-4.6 7.4-6.1 12.6-5.8 2.6.2 3.5 1.5 3.5 4.2-.1 2.4-1.3 4.5-3 5.9z"/><path d="m471.2 159.7c-6 0-10.4 4.1-7.1 11.6.7 1.6 1.6 3 2.4 4.5 1.4 2.4 3.5 4.5 4.5 7.7-8-.2-15.7.8-23.5-.4-7.3-1.1-10.8 2.3-9.9 9.8.5 3.6.8 7.4-.3 11.2-1.1-.2-1.9-.2-2.5-.5-3.8-1.7-7.6-3.4-11.3-5.1-6.6-3-12-2-14.2 4.9-1.1 3.3-3 6.4-4.8 10.3-1.4-3.1-2.5-5.2-3.3-7.6-.6-1.9-1.7-3.7-3.3-5.2-1.8-1.7-3.8-1.8-5.8-1-1.9.7-2.1 2.5-2.1 4.3 0 1.5.1 2.9.8 4.4 2.9 6.2 4.7 12.7 6.2 19.3 1.1 5 6.2 6.5 10 3 .8-.8 1.7-1.6 2.2-2.6 2-4 4.8-7.7 6.3-12 .8-2.4 1.6-5.1 3.9-6.7 2.1-.1 3.6 1.2 5.3 2 5.4 2.3 10.7 4.7 16.6 5.2 4.8.4 7.2-1.9 7.9-6.9.4-3 .1-6.1.2-9.1 0-1.8-.5-3.7.5-5.8h22.9c2.1 0 4.2.1 6.3-.3 6.5-1.3 8.9-6.6 5.7-12.4-.7-1.3-1.6-2.6-2.5-3.8-1.6-2.2-3.4-4.3-4.4-7.4 6.1 0 11.5-2 17.1-2.7 2-.2 4-1.1 5.9-2 3.9-1.8 4.9-3.8 4.7-8.1-.1-2-.8-3.8-2-5.2-2.3-2.7-4.3-5.7-7.2-7.9-3.5-2.8-6.8-6-9.5-9.4 1.3-2.1 3-2.9 4.5-4 5.9-4.1 11.3-8.9 15.9-14.5 3.5-4.3 2.6-9-2.2-11.9-1.6-1-3.4-1.5-5.4-1.7-3.9-.4-7.7-1-11.8-1.6.4-2.4.4-4.5.9-6.5 1.2-5.5 2.2-11.1 2.9-16.6.6-4.5-1.7-7.5-5.8-8.1-5.2-.8-10.4-1.5-15.7-2.1-3.3-.4-5.5 1.4-6 4.6-.7 4.8 1.2 7.1 6 7.6 3 .3 6-.3 9 .9-.3 7-1.7 13.6-3.7 20.1-2 6.8-.1 9.7 6.9 11.1 3.7.7 7.4 1.1 11.5 1.3-1.6 2.4-3.5 3.9-5.4 5.4-3.9 3-8.1 5.6-11.9 8.7-4.9 4-3.9 9.4-.5 12.8 4.1 4 8.1 8 12.1 12.1 1.1 1.1 2.7 2 3.1 3.8-2.1.5-4.1 1-6.1 1.6-4.6 1-9.3.9-14 .9z"/><path d="m396.1 174.4c-1.7-.1-3.4-.2-5.1-.1-3 .1-4.9 1.7-5.3 4.1-.5 2.8.8 5.1 3.8 6.1 1.6.5 3.2 1.1 4.9 1.2 9.7.8 19-.6 27.5-5.2 26.1-14 38.8-36.4 40.4-65.5.1-8.8-1.7-16.9-5.4-24.8-.9-1.9-2-3.7-3.8-4.9-3.3-2.3-7.6-.3-8.1 3.6-.3 2.4.5 4.5 1.6 6.5 4.7 8.7 5.2 18.3 3.8 27.6-2.4 15.3-9.2 28.7-21 39.1-9.6 8.2-20.4 13.1-33.3 12.3z"/><path d="m231.5 322.3c4.4-.2 8.7-.4 13.1-.6 1.3-.1 2.6-.1 3.7-1.1 1.8-1.6 2.6-4.2 1.7-6.7-.9-2.6-3.3-3.5-5.4-3.3-6 .3-12-.4-18.1-.3-9.2.2-18.3.9-27.5.6-8.7-.3-17.4.4-26 .4-1.6 0-2.9.7-3.9 2-1.2 1.5-1.6 4.8-.6 6.4 1.3 2.1 3.5 2.8 5.9 2.8 5 .1 10 .4 14.9.2 14.1-.8 28.2.1 42.2-.4z"/><path d="m259 281c-7.9-6.2-15.2-13.1-22.6-19.8-2.5-2.3-5-4.6-7.7-6.8-2.3-1.9-5.8-1.8-7.8 0-2.2 2-2.3 4.7-.4 7.7.5.8 1.1 1.5 1.8 2.2 10.5 9.5 20.8 19.3 31.9 28.2.7.6 1.6 1 2.4 1.4 3.3 1.5 5.4 1 7.1-2.2.6-1.1 1.3-2.3.9-4-1.4-2.4-3.2-4.8-5.6-6.7z"/><path d="m256.1 346.9c1.5-1.8 1.5-3.9.4-5.8s-2.9-3-5.2-2.5c-1.4 0-2.7.3-3.7 1.3-1.2 1.1-2.7 2-3.9 3.3-5.4 5.8-11.5 10.9-17.2 16.4-3.5 3.4-7.5 6.4-10.5 10.3-2 2.6-1.9 5.3-.2 7.2 1.9 2 5.3 2.3 7.8.6 1.1-.7 2.2-1.5 3.1-2.4 8.8-8.3 17.6-16.6 26.3-24.9 1.1-1.2 2.1-2.4 3.1-3.5z"/><path d="m620 117.4c-3.6-7.2-7.3-14.3-10.7-21.5-8.4-17.9-17.2-35.7-26-53.4-2.3-4.7-3.8-5.2-8.5-3.1-3 1.4-6 2.8-9 4.2l.1.1c-8 4.1-15.9 8.3-23.9 12.2-3.4 1.7-6.4 3.9-9.7 5.7-2.3 1.2-2.7 3-1.8 5.6.5 1.5 1.2 2.9 1.9 4.3 8.8 20.1 19.2 39.6 27 60.2.2.6.5 1.2.9 1.7 2.4 3 3.6 6.6 5.3 10 .8 1.7 1.5 3.5 2.4 5.1 1.7 3.2 3.5 3.8 7 2.4 1-.4 2-.9 3-1.4 10.3-5.1 20.5-10.2 30.8-15.4 3.6-1.8 7.2-3.8 10.8-5.8 3.1-1.7 3.7-3.3 2.6-6.6-.8-1.4-1.5-2.8-2.2-4.3zm-53.4 5.9-25.8-55.7c.5-1.5 2-1.5 3-2 9.9-4.4 19.1-10.3 29-14.8 1-.4 1.8-1.2 3.3-1.1 9.4 17.7 17.8 36.1 26.6 54.5-12 6.5-23.9 12.7-36.1 19.1zm44-.6c-11.5 5.1-22.4 11.3-33.7 16.8-.8.4-1.6 1-2.9.9l-3.6-7.7c3.1-2.8 24.8-14.4 36.7-19.6 2.1 2.5 3 5.7 4.4 8.6-.3.4-.6.8-.9 1z"/><path d="m516.2 44c1 1.9 2.8 2.9 4.5 2.7 2-.2 3.6-1.9 3.9-4.1.2-1.2 0-2.5 0-3.7-.1-9.8 5.7-16.9 15.4-19.1 8.1-1.8 15.6.1 22.7 3.8 1.4.7 2.7 1.7 4.3 1.8 3.6.3 5.9-2.9 4.4-6.3-.5-1.5-1.8-2.4-3.2-3.2-12.7-7.1-25.6-9-39-2-9.5 5-15.3 15.9-14.1 26.6.2 1.2.6 2.4 1.1 3.5z"/><path d="m555.7 28.3c-7.9-2.3-14.9-.5-20.8 5-2.7 2.6-4 5.9-3.6 9.8.2 2.2 1.6 3.3 3.3 4.1 1.6.8 3.1.3 4.4-.7 1.2-.9 1.6-2.3 1.7-3.7.3-2.7 2.1-4.1 4.4-5 2.4-.9 4.9-1.1 7.4-.6 1.1.2 2.2.5 3.2.3 3.4-.4 5.1-3.5 3.5-6.7-.6-1.4-2-2-3.5-2.5z"/><path d="m473.7 269.7c7.7-5 21-4.1 26.3 3.6 1.9 2.8 4.8 3.3 7.6 2.3 2.6-.9 5.2-2.4 5.6-5.8.1-1.5.7-2.9 1-4.4 3.5-18.5 13.6-32.1 30.3-40.7 7.8-4 16.1-6.2 24.8-7.3 8.9-1.1 17.7-1.3 26.6 0 3.7.6 7.5 1.1 11.3 1.2 2.9.1 4.8-1.6 5.3-4.1.4-2.6-.7-4.8-3-6.1-1-.6-2.1-.8-3.2-1-3.5-.6-7.2-.8-10.7-1.3-12-1.8-23.8-.9-35.5 1.4-13 2.6-24.9 7.8-34.9 16.5-11 9.5-17.9 21.7-21.5 35.8-1.9.3-2.7-.6-3.7-1.1-12.1-6.3-28.5-3.7-36.8 5.2-6.3 6.7-7.2 15.5-4.5 20.9 4 8 9.6 14.1 19.5 13.9 15-.3 30 .2 45-.9 8.9-.6 17.9-.2 26.8-.2 20.1 0 40.2-.2 60.4-1.1.9 0 1.9 0 2.8-.2 2.1-.3 3.4-1.7 3.9-3.6.6-2.1.2-4.1-1.7-5.6-2.4-1.9-5.3-2-8.1-1.7-1.7.2-3.3.6-5 .6-36.7-.4-73.3 1-110 1.2-3.8 0-7.6 0-11.4.1-1 0-1.9.1-2.9 0-3.9-.4-8.1-4-9-7.7-1.3-3.8.7-7.3 4.7-9.9z"/><path d="m492.6 312.2c-1.5 0-3-.1-4.6 0-3.3.2-5.5 2.5-5.4 5.3.1 2.7 2.2 4.8 5.1 5 4.7.3 9.4.7 14.2.8 25.1.2 50.2.3 75.3.4 1 0 1.9.1 2.8 0 2.9-.3 4.7-1.9 5-4.5.5-3.4-.5-4.9-3.5-6.3-1.5-.7-3-.5-4.5-.5-14.4 0-28.9 0-43.3 0v-.3c-13.7.1-27.4.1-41.1.1z"/><path d="m465.1 323.4c3 .1 5.6-2.5 5.7-5.7.1-3.1-2-5.3-5.2-5.4-3.3 0-5.9 2.4-5.9 5.5 0 2.6 2.9 5.6 5.4 5.6z"/><path d="m181.7 491.4c-3.4.1-6.9.4-10.5.6-1.6-2.1-1.5-4.2-1.6-6.3-.8-11.4-1.5-22.8-2.4-34.2-.9-11.9-2.3-23.7-3-35.6-.3-5.1-3.6-7.9-8.4-7.3-8.7 1.1-17.6 1.8-26.3 2.4-22.8 1.7-45.6 3.8-68.4 5.6-4.3.3-8.6.6-13 .9-5.5.4-11 .8-16.5 1.9-3.2.6-4.4 1.7-5.2 4.9-.4 1.4-.1 2.7 0 4.1.3 7.2 1.3 14.4 2 21.6.8 7.8 1 15.6 1.7 23.3.6 6.2.7 12.4 1.8 18.5.9 5.2.8 10.5 1.1 16-4.3.3-8 .5-11.8.7-4.1.3-6.1 3.2-4.9 7.1.5 1.6 1.4 3.2 1.9 4.8 2.7 7.7 6.9 14.3 14 18.6 6.9 4.1 14.1 7.6 22.4 3.9.2-.1.3 0 .5 0 8.1-.6 16.2-1.3 24.2-2.4 8.6-1.2 17.2-1.4 25.8-2.6 8.7-1.3 17.5-1.7 26.3-2.6 11.7-1.2 23.4-2.6 35.1-3.5 2.1-.2 4.1-.6 5.9-1.8 7.4-5.2 12.2-12 13.9-21 .6-3.4.9-6.8 1.5-10.2 1.2-5.2-.7-7.6-6.1-7.4zm-144.8-62.1c1.3-1.1 2.8-.7 4.1-.8 12.6-.9 25.3-1.3 37.9-2.8 18.4-2.1 37-2.5 55.4-4.5 6.3-.7 12.6-1.3 19.5-1.9.4 4.3.5 8.4 1 12.5 2.2 17.7 2.9 35.5 4.3 53.2.2 2.7 1.7 5.3 1 8.5-4.4.7-8.9 1.8-13.5 2-8.5.5-16.8 1.8-25.3 2.6-2.6.2-4.1 1.5-5.2 3.6-1.7 3.2-3.5 6.2-6.7 8.4-5.7 4.1-11.1 3.3-15.1-2.5-.4-.6-.7-1.2-1.1-1.8-1.8-2.6-4-3.9-7.4-3.5-12.7 1.4-25.5 2.5-38.2 3.7-1.2.1-2.4.2-4.3.3-.2-3-.2-5.6-.5-8.1-2.4-18.7-3-37.6-4.6-56.3-.3-4.2-1.8-8.3-1.3-12.6zm140.9 73.3c0 7-3.3 12.4-7.7 17.2-1.2 1.3-2.9 1.7-4.7 1.9-10.7.8-21.3 2.2-32 3.3-9.8 1-19.7 1.4-29.4 2.9-7.9 1.2-15.9 1.2-23.7 2.4-9.6 1.5-19.3 1.4-28.8 3-5.2.9-9.6.4-13.8-2.2-3.6-2.3-7.4-5.2-9.1-11.4.7-1.3 2.1-.9 3.2-1 10-1 19.9-2.1 29.9-3.2 7.7-.9 15.4-1.5 23.3-2.3.6.6 1.2 1.2 1.7 1.9 8.5 10.3 20.4 11.1 30.9 2.3 2-1.7 3.9-3.7 5-5.9 1.3-2.5 3.4-3.2 5.7-3.8.5-.1 1-.1 1.5-.1 11.6-.4 23-3 34.6-3.4 4.3-.4 8.4-2.5 13.4-1.6z"/><path d="m69 479c10.6 6.5 21.9 10.6 36.6 10.1 2.8.1 7.3-1.1 11.5-3.1 8-3.7 13.8-9.6 16.2-18.3.7-2.4-.2-4.1-1.7-5.5-1.6-1.5-3.7-1-5.4-.4s-2.4 2.3-3.1 3.9c-1.1 2.5-2.3 4.9-4.4 6.9-6.2 5.8-13.7 6.9-21.7 5.9-8.1-1-15.6-4.1-22.6-8.2-3.3-1.9-6-1.4-7.6 1.3-1.7 2.6-1 5.4 2.2 7.4z"/><path d="m111.6 453.1c2.7-.2 4.3-2.6 4-5.6-.3-2.8-2.5-4.9-5.1-4.7-2.5.1-5.1 3.2-4.8 5.8.4 2.9 2.9 4.8 5.9 4.5z"/><path d="m84 456.6c2.4 0 4.3-2.4 4-5s-2.3-4.2-5-3.9c-2.6.3-3.6 1.7-3.4 4.7.2 2.4 2.1 4.2 4.4 4.2z"/><path d="m182.7 55.9c1.2.3 2.2 0 3.3-.1 3.8-.4 7.5-1.1 11.3-.5 9.3 26.8 6.6 20.6 20.5 38-.3 2.2-2.3 3.4-3.6 4.9-1.9 2.2-3.6 4.5-4.6 7.1s0 5.2 2.2 6.5c2.1 1.3 4.8.8 6.6-1.3.7-.8 1.3-1.9 1.9-2.8 2.1-2.9 4.4-5.7 7-8 1.8-.1 3.1.6 4.5 1.1 13.1 4.8 25.4 3 36.8-4.7 12.2-8.3 19.1-20.2 22.8-34.2.8-3.1 1.3-6.2 2-9.8 2.8.5 5.4-.5 8 .8.9 3 1.7 5.9 2.6 8.7 4 12.6 10.5 23.5 21.4 31.4 9.5 6.9 19.9 9.9 31.6 6.9 3.9-1 7.4-2.8 10.7-4.4 1.7.5 2.5 1.6 3.5 2.5 3.6 3.2 7.8 5.4 12.1 7.3 3.4 1.4 6.3-.3 7.6-3.8.9-2.6-.2-4.6-3.3-6.2-.5-.2-1-.5-1.5-.7-3.8-1.1-6.6-3.5-9.7-6.3 9.7-10.6 13.7-23.5 15.4-37 4.6 0 8.6-.2 12.6.1 3 .2 5.1-.9 6.6-3.3 1.2-2.1 1.6-4.3.1-6.4-1.7-2.5-4-2-6.6-1.5-4 .7-8.2.9-12.3-.2-.6-4-1-7.8-1.7-11.5-1.5-7.4-4.2-9.6-11.7-9.5-22.4.1-44.9.3-67.3.5-1.5 0-3 .2-4.5.4-5.6.8-11.4 1.7-17 1-4.4-.6-8.7-.8-13-.8-14.3 0-28.5 0-42.8.1-8.7 0-17.5.2-26.2 0-5-.1-8.1 1.8-10 8.1-1 3.3-1.2 6.7-1.3 10.1-.1 1.8.5 3.8-.6 5.8-1.4.1-2.9.1-4.4.2-3.2.3-6.4.5-9.6 1.2-2.9.6-4.8 3.4-4.6 5.7.3 2.4 2.1 3.8 5.2 4.6zm129.4-23.7c3.2-.5 6.3-1.4 9.4-1.4 19-.1 37.9-.1 57.5-.1 3.1 16.3 1.4 31.5-7.8 45.3-3.2 4.8-7.2 8.8-12.6 11.2-10.3 4.6-19.7 2.3-28-4.6-9.6-7.9-14.6-18.5-17.4-30.4-1.5-6.5-1.4-13.1-1.1-20zm-19.1 0c2.3-.1 4.5-.2 7-.3.7 3.4.7 6.6-.1 9.9h-5.7c-.4-3.2-1.7-6.1-1.2-9.6zm-84.5-.3h71.8c1.2 1.2 1.7 2.4 1.8 3.8 1.1 15.5-1.4 30.2-11.3 42.8-6.6 8.5-15.1 13.7-26.3 13.4-7.5-.2-13.9-3.4-19.4-8.3-8.5-7.6-13.2-17.4-15.8-28.2-1.7-7.7-1.3-15.4-.8-23.5z"/><path d="m231.4 69.5c-1 2.5-.2 5.1 1.9 6.5 2.2 1.5 4.6 1.4 6.8-.4.9-.7 1.7-1.6 2.3-2.5 5.9-7.8 11.8-15.7 17.7-23.5 1-1.3 1.9-2.8 1.8-5 .5-1.8-.7-3.4-2.4-4.4-1.9-1.2-4.1-1.3-5.8.1-1.6 1.3-3 2.9-4.3 4.5-5.4 7.1-10.7 14.2-15.9 21.3-.8 1.1-1.6 2.2-2.1 3.4z"/><path d="m219.1 64.7c1.9 1.4 4.2 1.4 6.2-.6 4-3.8 7.1-8.4 10-13 .5-.7.4-1.8.5-2.3 0-4.5-3.4-6.7-6.9-4.7-1 .5-1.9 1.3-2.6 2.1-2.6 3.3-5.1 6.6-7.5 10-.6.8-1.1 1.6-1.4 2.5-.9 2.2-.1 4.8 1.7 6z"/><path d="m340.5 70.5c-1 2.7-.1 5.7 2 7.1 2 1.3 4.5 1 6.8-.9.6-.5 1.1-1 1.6-1.6 6.6-8.5 13.2-17 19.8-25.6 1.2-1.5 2.1-3.2 1.9-5 0-3.7-1.8-5.4-5.3-5.3-2.5.1-4.1 1.4-5.6 3.3-6.4 8.4-13 16.8-19.4 25.2-.7.9-1.4 1.8-1.8 2.8z"/><path d="m333.1 64.5c2.5-.2 4.6-.9 6.3-2.7 3.7-4.1 7.1-8.4 10.1-13 .6-.9 1-2.1 1.2-3.2.4-2.3-.3-4.1-2.3-5.4-2.1-1.3-4-.8-5.7.8-.8.8-1.5 1.7-2.2 2.6-3.4 4.2-5.8 9.3-11.5 11.3-2.4.8-2.8 4.3-1.4 6.4 1.2 2.3 3.3 2.9 5.5 3.2z"/><path d="m25.9 165.7c4.7-.2 9.5-.7 14.1-.7 15.2 0 30.3-1.3 45.5-1.4 5.9 0 11.7-.1 17.5-1.1 2.9-.5 4.4-1.8 4.8-4.6.4-3 .7-6 .9-9 .6-7.9.3-15.9 1-23.8 1-12.8 1.1-25.7 1.6-38.6.2-5.1.4-10.2.7-15.3.9-13 1.2-26.1 1.5-39.1.2-6.3-2.1-8.5-8.4-8.5-5.7 0-11.4.7-17 .8-18 0-36 1.7-54 1.5-3.1 0-6 .8-9 .9-2.2.1-3.3 1.4-4.2 3.2-.8 1.6-.7 3.3-.8 5-.3 10.8-.3 21.6-.7 32.3-.9 25.4-.1 50.8-1.5 73.9 0 7 .1 11.8 0 16.5-.2 4.4 2.4 8.2 8 8zm5.9-128.1c.7-.2 1.1-.4 1.5-.4 16.8.5 33.7-1.6 50.5-1.2 5.9.1 11.6-1.5 17.9-.9.7 2.9.7 6 .2 8.8-.7 3.4-.8 6.8-.8 10.2.1 14.2-1.1 28.4-1.6 42.6-.3 8.9-.1 17.8-1 26.6-.9 9.2-.6 18.5-1.1 27.4-1.2 1.6-2.6 1.4-3.9 1.4-4.9 0-9.9-.3-14.8.2-13.4 1.1-26.9.9-40.4 1.2-2.8.1-5.5 1.6-8.4.6-.7-3.7.9-103.8 1.9-116.5z"/><path d="m43.1 72.2c2.4.6 3.9-.8 5.4-2.4 4.6-5.2 5.6-5.5 11.2-1.7 3.2 2.1 6.7 3.3 10.4 4.1 6.8 1.4 17.6-3.9 20.8-10 1.3-2.5 1-5-.9-6.6-2-1.6-4.5-1.7-6.7 0-1.8 1.3-3.5 2.9-5.4 4.1-3.2 2.1-6.7 2.3-10.2.6-1.7-.8-3.3-1.8-4.9-2.8-2.3-1.5-4.7-2.4-6.2-2.2-2.3.1-3.2.1-4.1.2-5 .8-9.4 2.6-11.9 7.4-1.1 2-1.3 4-.9 6 .2 1.7 1.6 2.9 3.4 3.3z"/><path d="m42.7 108.6c1.7.6 3.4.2 4.6-1.3.7-.9 1.2-1.9 1.9-2.8 3.1-4.3 6.1-5.2 11.2-3.6 3.6 1.1 7.1 2.7 10.8 2.3 6.8 1.1 13.9-5.3 16.7-10.2 1.8-3.2-.1-6.7-3.8-7-2.4-.3-4.6.2-6.1 2.3-3.6 5.1-8.3 5.1-13.5 2.9-.5-.2-1.1-.4-1.6-.5-10.1-3.6-16.2.7-21.5 6.8-1.8 2.1-2.2 4.7-1.8 7.5.1 1.9 1.5 3 3.1 3.6z"/><path d="m79.8 124.4c-3.1 3-5.9 3.2-9.7 1.7-4.4-1.8-8.9-2.8-13.8-2.5-6.5.4-10.8 3.9-14 9.2-.5.8-.6 1.8-.7 2.7-.3 3.1.8 5.2 3 6.1 1.8.7 4.2-.3 5.9-2.4 5-6 6.1-6.3 13.5-4 3 1 6.1 1.9 9.2 2.7 4.3 1 7.8-.3 11.1-2.7 1.2-.9 2.1-2.2 3.3-3.1 2.9-2.2 4.1-4.9 2.9-8.8-4.9-2.8-6.5-3-10.7 1.1z"/><path d="m346.8 359c10.1-1.1 19.6-3.9 27.9-9.8 2.6-1.9 5.2-2.2 8-1.7 7 1.2 14 2.6 21.1 3.9 3.5.6 5.8-.6 7.2-3.8 1-2.2.9-4.4.1-6.6-2.8-7.2-5.5-14.4-8.6-21.5-1.5-3.5-1.7-7-1-10.5 2.1-11.6.6-22.7-3.2-33.8-7.8-22.6-34-40.6-57.7-39.3-4.5 0-9.1 0-13.8 1.3-14.8 3.8-27.2 11.3-36 23.8-9.9 14-14.5 29.6-11.2 47 2.2 11.5 6.7 22 14.7 30.6 14.1 15.2 31.4 22.6 52.5 20.4zm-49.2-33.9c-14.6-22.4-9.2-52.8 12.9-68.6 4.6-3.3 9.5-6.2 15-7.8 11.6-3.3 23-3 34.3 1.6 17 7 27.2 19.9 31.2 37.6 1.2 5.4.6 11 .3 16.5 0 1-.3 1.9-1 2.6-3.1 3.1-2.1 6.4-.6 9.9 2.7 6.8 5.2 13.7 8.3 21.7-6.5-1.1-11.8-1.9-17.1-3.1-4.4-1-8-.7-11 3.3-3.1 4.1-8.1 5.8-12.6 7.2-7.9 2.5-16 3.2-24.5 1.8-15.5-2.4-27-10.1-35.2-22.7z"/><path d="m375.4 298.3c.7-17.2-13.3-35.9-35.8-36-19.6-.1-35.8 14.9-36.1 36.5-.2 17.5 13.7 35.4 35.2 35.7 23 .3 37.3-17.8 36.7-36.2zm-60.5 2.8h9.2c1.2.5 1 2.1 1.3 3.3 1 3.5 3 6.2 6.1 7.8 4.4 2.2 4.4 6 4.6 9.9-10.3.7-20.1-8.9-21.2-21zm32.3 20.3c-1.4-1.8-.7-4-1.1-6-.9-4.8-3-8.5-7.4-10.7-2.3-1.2-3.5-3.1-4.3-5.5-2.7-7.9-6.6-9.8-14.7-7.7-.3.1-.7-.1-1.1-.1-2-1-2.1-2.6-1.5-4.3 4.4-11.3 21.5-17 33.3-10.5-2.7 3.4-4.6 6.8-5.6 10.7-2.2 8.6 2.2 14.6 11 14.8h7.3c.9 8.5-7.3 18.2-15.9 19.3zm8.1-29.7c-.9-3.7 1.4-5.8 2.8-8.5 3.8 1.5 3.9 4.9 5.9 7.6-3 1.4-5.8.8-8.7.9z"/><path d="m430.1 356c-4.7-.1-7.1 1.2-7.8 3.8-.9 3.1.3 5.6 3.6 7.5 1.8 1 3.7 1.9 5.5 2.9 13.5 7.6 26.8 15.3 40.4 22.7 10.3 5.6 20.5 11.4 30.7 17 3.1 1.7 6.2 3.6 10 3.8 13 .7 26 1.4 39.1 2.1 14 .7 28 .9 41.9 2.3 3.1.3 6.6-1.7 7.4-4.2.8-2.4-.2-4.8-2.9-6.8-.5-.3-1-.6-1.5-.9-6.1-3.4-12.1-6.8-18.2-10.1-8.9-4.9-17.8-9.8-26.8-14.6-9.1-4.9-18.3-9.7-27.5-14.5-1.5-.8-3-1.6-4.7-1.8-11.3-1.1-22.5-2.2-33.8-3.4-8.5-.9-16.9-1.7-25.3-2.8-10.5-1.1-20.9-1.4-30.1-3zm47.6 16.3c5.4.5 10.9.9 16.3 1.7 7.1 1 14.3 1.6 21.4 2.3 1.7.2 3.3.6 4.9 1.4 15.8 8.6 31.5 17.2 47.3 25.8.5.3.9.6 2.1 1.5-9.6.4-18-.5-26.5-1-9.1-.5-18.1-.9-27.2-1.3-2.4-.1-4.4-.8-6.5-1.9-15.2-8.5-30.4-16.9-45.6-25.4-2.5-1.4-4.9-2.7-7.8-4.3 7.6-1 14.6.6 21.6 1.2z"/><path d="m547.4 419.1c-4.5 2.4-4.5 2.4-5.5 7.1-1 4.8-1.8 9.5-2.7 14.3-2.1.2-2.9-1.3-4-2.3-8.6-7.8-17.8-14.5-28.8-18.6-9.1-3.4-18.3-5.4-28.1-4.4-4.7.4-9.2 1.5-14.8 3 1.5-3.3 2.4-5.3 3.3-7.4 1.2-2.8 2.6-5.5 3.7-8.3 1.2-3.1.2-6.8-2.1-8.1-2.1-1.3-5.8.2-7.8 3-.3.5-.6 1-.8 1.5-3.9 8.4-7.8 16.8-11.6 25.3-2.1 4.7-.9 7.4 3.7 9.6 2.8 1.4 5.4 1.2 8.1-.4 2.1-1.3 4-2.7 6.3-3.7 13.3-5.8 26.3-3.5 39 1.8 11.5 4.9 20.9 12.9 29.2 22.1 2.5 2.8 5.2 3.8 9.1 2.9 3.9-1 5.2-3.6 5.8-6.8 1.4-7 2.6-14.1 3.7-21.2.7-5.8 0-6.9-5.7-9.4z"/><path d="m609.6 447.6c1-2.3-.1-4-1.6-5.6-1.6-1.7-3.9-2.4-6-3.2-11.9-4.7-24.1-8.7-35.8-13.9-3.8-1.7-6.4-.3-8.4 3.4-1.9 3.5-1 6.5.8 9.6 4.2 7.4 8.4 14.8 12.6 22.2 1.8 3.1 3.4 6.4 5.4 9.3 2.7 3.8 6.7 3.7 9.3-.1.6-.9.8-2.1 1.1-2.9-1.5-3-2.9-5.7-4.2-8.2 1.1-1.1 1.8-.6 2.3-.1 1.3 1.1 2.3 2.5 3.9 3.2 2.7 1.2 5.6.8 7.3-1.2 1.7-1.9 1.8-4.2 0-6.7-1-1.3-1.4-3.2-3.2-3.8-1.9-.1-2.8-1.1-3.4-3.2 2.3-.3 3.3 1.9 5.1 1.9 3.1 1.5 6.3 2.7 9.8 2.6h.6c.6 1.1 1.5 1.6 2.8 1.7 1 .1 1.6-.3 1.8-1.3-.9 0-1.6-.6-2.3-1.1.9-.6 1.6-1.4 2.1-2.6z"/><path d="m516 394.5c2.7.7 4-.3 6.1-4.4-2-4.2-3.3-5.2-6-4.6-2 .4-3.7 2.4-3.7 4.5 0 2 1.6 4 3.6 4.5z"/><path d="m303.6 428.6c-12.9 3.3-21.4 15.8-21.4 26.7 0 9.3 3.5 16.9 10.4 22.9 2.5 2.2 3.6 4.5 3.4 7.8-.2 2.8-.2 5.7.1 8.5.3 3.5 2.8 5.9 6.3 6 5.9.1 11.7-.7 17.4-1.8 5-.9 6.6-3.1 6.8-8.2.1-3.2 0-6.4 0-9.2 2-2.3 3.4-3.9 4.9-5.3 5-4.9 7.3-11 7.6-17.8 1-19.6-17.7-34.2-35.5-29.6zm18.4 40.6c-5.7 4.2-6.8 9.5-6.8 15.7 0 .8-.1 1.5-.1 2.8-1.1.1-1.9.3-2.6.3-1.5 0-3 0-4.5 0-1.2-1.6-.7-3.3-.6-5 .2-5.5-1.7-10-6.5-13-6.4-4-9-13-6.2-20.5 3-8.1 14.3-14.8 25-7.5 11.2 7.7 10.3 21.3 2.3 27.2z"/><path d="m321.6 506.4c-7-.1-14 0-21.1 0-1.4 0-2.6.7-3.7 1.2-1.9.9-3.2 4-2.8 5.8.6 2.6 2.3 4.2 5.2 4.3 3.6.1 7.2 0 10.8 0v-.1h10.8c1.3 0 2.6 0 3.8-.9 1.9-1.5 2.8-4.1 2.1-6.6-.6-2.1-2.4-3.7-5.1-3.7z"/><path d="m313 400.4c0-.4 0-.8 0-1.1.1-2.1-.4-4.1-1-6.1-.6-2.2-2-3-4.1-3.1-3.9-.3-6.2 1.5-6.2 5.5-.1 6.4.1 12.9.1 19.3 0 1.4.5 2.6 1.1 3.7 1.4 2.9 3.7 4 6.5 3.3 2.3-.6 3.7-2.5 3.8-5.6.1-3 0-6 0-9.1h-.1c-.1-2.3-.1-4.6-.1-6.8z"/><path d="m367 457.3c3-.1 4.9-1.5 5.4-3.9.6-2.7-.8-5.1-3.2-6.5-1.8-1-3.7-1.2-5.5-.7-4.3 1.1-8.6.7-12.9 1-1.3.1-2.6.2-3.8.8-3.4 1.5-4.7 3.5-4.1 6.4.5 2.6 3.5 4.5 6.7 3.7 3.4-.9 6.7-.4 9.4-.7 3.1-.1 5.6 0 8-.1z"/><path d="m273.9 451.5c-1.8-1-3.8-1.2-5.5-.7-2.6.9-5.2.6-7.9.7-3 .1-6.1 0-9.1 0-1.5 0-3.1.1-4 1.6-.9 1.6-2.1 3.1-1 5.2 1 2.1 2.6 3.3 4.8 3.4 2.6.2 5.3 0 7.9 0 4.5.2 9-.2 13.5-1 2.4-.4 3.8-1.3 4-3.9.3-2.9-.3-4-2.7-5.3z"/><path d="m354.3 419.9c.8-.7 1.6-1.7 2.1-2.6 1.6-2.7 1.3-5.4-.6-7.3-1.8-1.7-4.2-2.1-6.8-.6-5.1 3-9.3 7-13.3 11.3-1.7 1.8-1.5 4.3-.5 6.4.9 2 2.7 3.1 4.9 2.9 2 .1 3.5-.9 4.8-1.9 3.2-2.7 6.3-5.4 9.4-8.2z"/><path d="m286.6 432.4c.8-2 1.8-4.4 0-6.3-3.6-3.8-7.3-7.6-11.2-11.2-1.5-1.4-5.9-1.3-7.5-.2-2 1.4-1.6 3.6-1.7 5.7 0 1.4.6 2.5 1.6 3.5 3 2.9 5.9 5.9 8.9 8.7 1.4 1.2 3.1 2.2 5.2 2 1.8 0 3.9-.1 4.7-2.2z"/><path d="m809.5 133.3c2.8 1.1 4.4 2.8 5.1 5.7.6 2.5 1.5 4.9 2.5 7.2 1.2 2.9 4 4.2 7.1 3.2 5-1.6 9.7-3.9 14.3-6.5 4-2.2 4.7-4.5 3.5-8.9-.8-2.8-1.8-5.5-2.6-7.8 1.1-2.5 1.7-4.2 2.6-5.9 2.9-5.5 3.1-11.4 1.4-17.2-4.8-16.9-24.8-24-38.5-15.1-10 6.5-13.7 19.4-10.6 28.7 2.5 8 7.6 13.5 15.2 16.6zm12.7-38.2c11.6 3.3 14.6 15.1 9.6 22.3-3.6 5.2-3.1 10-1.3 15.2.2.6.4 1.3.7 2.4-.9.4-1.5.7-2.1 1-1.3.5-2.5.9-3.8 1.3-1.4-1-1.5-2.6-1.9-4-1.4-4.8-4.2-8-9.1-9.2-6.6-1.6-11.3-8.5-11-15.6.2-7.8 7.9-16.6 18.9-13.4z"/><path d="m847.4 156.9c1.2-1.8 1.2-4.2-.1-6.2-1.1-1.6-3.1-2.4-5.4-1.7-6 1.9-11.9 4-17.8 6-1.2.4-2 1.3-2.8 2.1-1.3 1.3-1.6 4.3-.8 5.7 1.2 2 3.2 2.9 5.6 2.2 3.1-.9 6.1-2 9.2-3 3.1-1 6.1-2 9.2-3.1 1.1-.5 2.2-.9 2.9-2z"/><path d="m799.2 77.1c.4 1.2 1.2 2 2 2.9 2 2 4.3 2.3 6.4 1 1.8-1.1 2.4-3.2 1.7-5.8-.8-2.6-1.7-5.1-2.5-7.7h-.1c-.6-1.9-1.3-3.8-1.9-5.8-.1-.3-.2-.6-.3-1-.5-1.8-1.5-3.3-2.6-4.9-1.2-1.6-2.6-2-4.4-1.5-3.4.9-4.8 3-3.7 6.4 1.6 5.5 3.6 10.9 5.4 16.4z"/><path d="m870 89.7c-.3-2.4-2.1-4.1-4.6-4.6-1.8-.4-3.5.1-4.8 1-3.3 2.1-7.1 3-10.6 4.5-1.1.5-2.1.9-3 1.7-2.4 2.2-3 4.3-1.7 6.6 1.2 2 4.2 2.9 6.7 1.2 2.6-1.7 5.6-2.2 7.8-3.3 2.6-.9 4.7-1.5 6.8-2.3 2.4-.8 3.7-2.6 3.4-4.8z"/><path d="m769.7 131.2c2.3-.6 4.5-1.5 6.7-2.2 3.9-1.1 7.6-2.7 11.1-4.7 1.9-1 2.8-2.2 2.3-4.4-.6-2.7-1.5-3.4-3.9-3.9-1.8-.3-3.5 0-4.8 1-2 1.5-4.3 2-6.5 2.8-2.5.9-5.1 1.7-7.7 2.6-1.3.4-2.6 1-2.9 2.5-.3 1.6-.9 3.2.6 4.7 1.6 1.5 3.2 2.1 5.1 1.6z"/><path d="m836 79c1.8-.5 2.7-1.7 3.5-3 2-3.1 3.8-6.3 5.7-9.6.5-.9.8-1.8 1-2.8.6-2.7-.4-5-2.6-6-2-1-4.2-.6-5.9 1.4-3.5 3.9-5.9 8.6-8 13.4-.9 2 0 4.1 1.4 5.6 1.3 1.4 3.1 1.9 4.9 1z"/><path d="m773 94.3c3.3 1.6 6.6 3.3 10 4.8 1.5.7 3.2 1 5 .2 1.6-.4 3.2-1.2 3.3-3.2.1-1.9.3-4.2-1.8-5.3-4.1-2.2-8.3-4.4-12.6-6.3-1.7-.8-5.4.6-6.4 2-1.3 1.8-.4 3.5.2 5.3.4 1.2 1.2 2 2.3 2.5z"/><path d="m701.8 265.5c33.6 0 60.8-27.2 60.8-60.8s-27.2-60.8-60.8-60.8-60.8 27.3-60.8 60.9c0 33.5 27.2 60.7 60.8 60.7zm0-111.1c27.8 0 50.3 22.5 50.3 50.3s-22.5 50.3-50.3 50.3-50.3-22.5-50.3-50.3 22.5-50.3 50.3-50.3z"/><path d="m701.8 217.9c1.7 0 3.4-.3 4.9-.9l11.3 11.3c2 2 5.3 2 7.4 0 2-2 2-5.3 0-7.4l-11.4-11.3c.6-1.5.9-3.1.9-4.9 0-5.4-3.3-10.1-7.9-12.1v-23.6c0-2.9-2.3-5.2-5.2-5.2-2.9 0-5.2 2.3-5.2 5.2v23.6c-4.7 2-7.9 6.7-7.9 12.1-.1 7.3 5.8 13.2 13.1 13.2zm0-15.9c1.5 0 2.7 1.2 2.7 2.7s-1.2 2.7-2.7 2.7-2.7-1.2-2.7-2.7c-.1-1.5 1.1-2.7 2.7-2.7z"/><path d="m642.5 373 2.8-3.5c8.4-10.4 8.4-24.8.1-35.1l-2.7-3.4c-4-5-4-12 0-16.9 1.8-2.2 1.4-5.5-.8-7.3-2.3-1.8-5.6-1.4-7.4.8-7.1 8.8-7.1 21.1 0 29.9l2.7 3.4c5.3 6.5 5.3 15.6 0 22.1l-2.8 3.5c-1.8 2.2-1.4 5.5.8 7.3.9.8 2.1 1.1 3.3 1.1 1.4.1 3-.6 4-1.9z"/><path d="m692.7 366.5c-1.8 2.2-1.4 5.5.8 7.3.9.8 2.1 1.1 3.3 1.1 1.5 0 3.1-.7 4.1-2l2.8-3.5c8.4-10.3 8.4-24.7.1-35.1l-2.8-3.3c-4-5-4-12 0-16.9 1.8-2.2 1.4-5.5-.8-7.3-2.3-1.8-5.6-1.4-7.4.8-7.1 8.8-7.1 21.1 0 29.9l2.7 3.4c5.3 6.5 5.3 15.6 0 22.1z"/><path d="m663.5 354.8c-1.8 2.2-1.4 5.5.8 7.3.9.8 2.1 1.1 3.3 1.1 1.5 0 3.1-.7 4.1-2l2.8-3.5c8.4-10.3 8.4-24.7.1-35.1l-2.7-3.4c-4-5-4-12 0-16.9 1.8-2.2 1.4-5.5-.8-7.3-2.3-1.8-5.6-1.4-7.4.8-7.1 8.8-7.1 21.1 0 29.9l2.7 3.4c5.3 6.5 5.3 15.6 0 22.1z"/><path d="m841 467.5c-.4-1.7-1.4-3-2.8-3.5l-8.1-3.1c-5.3-2-11.6-.2-16 4.6-5.8 6.2-12.6 10.9-20 13.5l-6.6 2.4-109.6-42.4c-7.1-2.8-14.7-4.1-22.5-3.9-7 .2-13.4 5.1-16.3 12.8-3 7.6-1.6 15.6 3.4 20.4 5.7 5.4 12.2 9.5 19.3 12.2l35.2 13.6c.7 3.9 3 7.1 6.5 8.4l36 13.9c3.5 1.3 7.3.5 10.5-1.9l5.5 2.1c.4.1.8.2 1.2.3l37.3 2.7 10.2 4c5.8 2.2 12.7-1.6 15.4-8.6 1.3-3.4 1.4-6.9.4-9.9l20.3-32.6c.7-1.6 1.1-3.4.7-5zm-95.5 36.7c-.3.8-1.2 1.3-1.8 1.1l-36-13.9c-.7-.3-1-1.1-.6-2 .3-.8 1.1-1.3 1.8-1l36 13.9c.6.1.9 1.1.6 1.9zm64.6 7.1c-.3.9-1.1 1.4-1.8 1.1l-15-5.8c-.7-.3-1-1.2-.7-2 .3-.9 1.2-1.3 1.9-1.1l15 5.8c.7.2 1 1.1.6 2zm2.5-13.5-13.8-5.3c-5.8-2.2-12.7 1.6-15.4 8.6-.8 2-1.1 4-1.1 5.9l-23.3-1.7-3.4-1.3c.7-5.6-1.8-11-6.6-12.8l-36-13.9c-4.7-1.8-10.2.4-13.5 5.1l-33.5-12.9c-6.1-2.4-11.7-5.9-16.5-10.5-2.8-2.7-1.7-6.4-1.3-7.5.1-.3.3-.7.5-1.1l14.2 5.5c2.5 1 5.6-.7 6.8-3.8.4-1.1.5-2.2.4-3.1 1.2.4 2.3.7 3.5 1.2l111.1 42.9c1 .4 2 .4 3.1 0l8.2-2.9c9.1-3.2 17.6-8.9 24.7-16.6 1.5-1.6 3.5-2.2 5.3-1.5l2.3.9z"/><path d="m775.4 413.3c1.2 3.1 2.1 6.9 6.4 7.3 4 .4 5.5-2.8 7.1-5.6 2.9-4.7 5.9-9.4 8.7-14.2 1.5-2.6 3.3-4 6.2-5.2 13.9-5.9 23.8-16 27.3-31 3.2-13.9-.3-26.2-11.2-35.8-9.1-8-20.2-9-31.3-5.8-18.6 5.4-30.2 22.3-30.5 40.7-.1 7.4 1.9 14.3 8.2 22.3 2.6 2.6 3.3 8.6 5.1 14.2 1.4 4.3 2.4 8.8 4 13.1zm17.6-79.5c11-2.5 22.8 1.6 26.5 15.6 2.6 9.7-.2 18.3-6.3 25.7-4.2 5.2-9.6 9.3-16.8 10-2.5.2-4.1 1.8-5.3 3.9-2.2 3.6-4.4 7.1-7.2 11.6-2-6.3-3.8-11.5-5.3-16.8-.4-1.6-1.1-2.6-2.3-3.7-4.8-4.6-6.8-10.3-6.8-17 .2-11.4 9.4-26.1 23.5-29.3z"/><path d="m710.1 80.5c3 0 5.5-1.1 7.4-2.8 1.7-1.8 2.5-3.7 2.5-6 0-2.5-.8-4.6-2.5-6.2s-4-2.5-6.6-2.5c-.6 0-1.2 0-1.7.1-1.2.2-2.6-.6-2.4-1.8.9-5.2 4.3-9.5 10.2-12.8 1.5-.8 2.1-2.7 1.2-4.1-.7-1.3-2.3-1.8-3.6-1.1-4.1 2.2-7.5 5-10.2 8.5-3.8 4.7-5.7 10.2-5.7 15.8 0 3.7 1.1 6.7 3.4 9.1 2.1 2.5 4.8 3.8 8 3.8z"/><path d="m650 87.2v33.1c0 2 1 3.8 2.7 4.8s3.8 1 5.5.1l26.9-15c.4.2.9.4 1.4.5 2.2.4 4.4.6 6.6.6 28.5 1.1 53.4-19.5 54.7-46.8 1.3-27.5-21.5-50.2-50-51.3-28.4-1.3-53.5 19.3-54.8 46.8-.4 9.7 2.1 18.8 7 26.7zm4.1-26.7c1-20.7 20.2-37.4 43.3-36.4 23 .9 40.3 19.1 39.4 39.8-1 20.5-20 37.2-43.3 36.2-.1 0-.2 0-.2 0-1.5 0-3.1-.1-4.7-.4-.6-.1-1.2-.1-1.8 0-1.6-1-3.7-1-5.5-.1l-20.2 11.2v-23.6c0-.9-.2-1.7-.6-2.5.1-1.2-.2-2.4-.9-3.5-3.9-6.1-5.8-13.1-5.5-20.7z"/><path d="m681.9 80.5c3 0 5.5-1.1 7.4-2.8 1.7-1.8 2.5-3.7 2.5-6 0-2.5-.8-4.6-2.5-6.2s-4-2.5-6.6-2.5c-.3 0-.7 0-1 0-1.5.1-3.3-1-2.9-2.4 1.2-4.9 4.5-8.9 10.1-12.1 1.4-.8 2-2.6 1.2-4-.7-1.3-2.3-1.8-3.6-1.2-4.1 2.2-7.5 5-10.3 8.5-3.8 4.7-5.7 10.2-5.7 15.8 0 3.7 1.1 6.7 3.4 9.1 2.1 2.5 4.8 3.8 8 3.8z"/></g></svg>