<svg width="48" height="48" viewBox="0 0 48 48" fill="none" xmlns="http://www.w3.org/2000/svg">
<path d="M0 8C0 3.58172 3.58172 0 8 0H40C44.4183 0 48 3.58172 48 8V40C48 44.4183 44.4183 48 40 48H8C3.58172 48 0 44.4183 0 40V8Z" fill="#FF4338"/>
<mask id="mask0" mask-type="alpha" maskUnits="userSpaceOnUse" x="0" y="0" width="48" height="48">
<path d="M0 8C0 3.58172 3.58172 0 8 0H40C44.4183 0 48 3.58172 48 8V40C48 44.4183 44.4183 48 40 48H8C3.58172 48 0 44.4183 0 40V8Z" fill="#FFC400"/>
</mask>
<g mask="url(#mask0)">
<path d="M37.9831 23.6379H25.0176V17.9655L25.8279 17.1552H37.1728L37.9831 17.9655V23.6379Z" fill="#FFC400"/>
<path d="M43.6551 31.7414H19.3447V26.069L20.1551 25.2587H42.8447L43.6551 26.069V31.7414Z" fill="#FFC400"/>
<path d="M49.3275 39.8449H13.6724V34.1725L14.4827 33.3622H48.5172L49.3275 34.1725V39.8449Z" fill="#FFC400"/>
<path d="M53.3792 41.4655H9.62061V49.5689H53.3792V41.4655Z" fill="#FFC400"/>
<path d="M14.4826 34.1724H13.6722C12.3301 34.1703 11.2432 33.0835 11.2412 31.7413H12.8619C12.8619 32.189 13.2245 32.5517 13.6722 32.5517H14.4826V34.1724Z" fill="#FF7B73"/>
<path d="M44.1414 26.2311H43.3311V24.6104H44.1414C44.5891 24.6104 44.9517 24.2478 44.9517 23.8H46.5724C46.5704 25.1422 45.4835 26.2291 44.1414 26.2311Z" fill="#FF7B73"/>
<path d="M20.6418 26.2311H19.8314C18.4893 26.2291 17.4024 25.1422 17.4004 23.8H19.0211C19.0211 24.2478 19.3837 24.6104 19.8314 24.6104H20.6418V26.2311Z" fill="#FF7B73"/>
<path d="M25.8278 17.9652H25.0175C23.6753 17.9632 22.5885 16.8763 22.5864 15.5342H24.2071C24.2071 15.9819 24.5697 16.3445 25.0175 16.3445H25.8278V17.9652Z" fill="#FF7B73"/>
<path d="M37.9827 17.9652H37.1724V16.3445H37.9827C38.4304 16.3445 38.7931 15.9819 38.7931 15.5342H40.4137C40.4117 16.8763 39.3248 17.9632 37.9827 17.9652Z" fill="#FF7B73"/>
<path d="M32.3101 22.8275V21.2068C32.3101 20.7593 31.9473 20.3965 31.4998 20.3965C31.0523 20.3965 30.6895 20.7593 30.6895 21.2068V22.8275H32.3101Z" fill="white"/>
<path d="M42.845 26.0688H20.1554C19.2599 26.0688 18.5347 25.3435 18.5347 24.4481L25.0174 22.8274H37.9829L44.4657 24.4481C44.4657 25.3435 43.7404 26.0688 42.845 26.0688Z" fill="#FF655C"/>
<path d="M32.3101 30.931V29.3103C32.3101 28.8628 31.9473 28.5 31.4998 28.5C31.0523 28.5 30.6895 28.8628 30.6895 29.3103V30.931H32.3101Z" fill="white"/>
<path d="M26.6383 30.931V29.3103C26.6383 28.8628 26.2755 28.5 25.8279 28.5C25.3804 28.5 25.0176 28.8628 25.0176 29.3103V30.931H26.6383Z" fill="white"/>
<path d="M37.9825 30.931V29.3103C37.9825 28.8628 37.6197 28.5 37.1722 28.5C36.7246 28.5 36.3618 28.8628 36.3618 29.3103V30.931H37.9825Z" fill="white"/>
<path d="M48.517 34.1724H14.4825C13.5871 34.1724 12.8618 33.4472 12.8618 32.5517L19.3446 30.931H43.6549L50.1377 32.5517C50.1377 33.4472 49.4124 34.1724 48.517 34.1724Z" fill="#FF655C"/>
<path d="M32.3101 39.0346V37.4139C32.3101 36.9663 31.9473 36.6035 31.4998 36.6035C31.0523 36.6035 30.6895 36.9663 30.6895 37.4139V39.0346H32.3101Z" fill="white"/>
<path d="M22.586 39.0346V37.4139C22.586 36.9663 22.2232 36.6035 21.7757 36.6035C21.3281 36.6035 20.9653 36.9663 20.9653 37.4139V39.0346H22.586Z" fill="white"/>
<path d="M42.0343 36.6035H40.4136V39.0346H42.0343V36.6035Z" fill="white"/>
<path d="M53.3793 42.2759H9.62069C8.72526 42.2759 8 41.5507 8 40.6552L13.6724 39.0345H49.3276L55 40.6552C55 41.5507 54.2747 42.2759 53.3793 42.2759Z" fill="#FF655C"/>
<path d="M31.5001 45.5171C32.3955 45.5171 33.1208 46.2423 33.1208 47.1378V48.7585H29.8794V47.1378C29.8794 46.2423 30.6047 45.5171 31.5001 45.5171Z" fill="white"/>
<path d="M15.2931 45.5171C16.1885 45.5171 16.9137 46.2423 16.9137 47.1378V48.7585H13.6724V47.1378C13.6724 46.2423 14.3976 45.5171 15.2931 45.5171Z" fill="white"/>
<path d="M23.3966 45.5171C24.292 45.5171 25.0173 46.2423 25.0173 47.1378V48.7585H21.7759V47.1378C21.7759 46.2423 22.5011 45.5171 23.3966 45.5171Z" fill="white"/>
<path d="M39.6031 45.5171C40.4985 45.5171 41.2238 46.2423 41.2238 47.1378V48.7585H37.9824V47.1378C37.9824 46.2423 38.7077 45.5171 39.6031 45.5171Z" fill="white"/>
<path d="M47.7071 45.5171C48.6025 45.5171 49.3278 46.2423 49.3278 47.1378V48.7585H46.0864V47.1378C46.0864 46.2423 46.8117 45.5171 47.7071 45.5171Z" fill="white"/>
<path d="M30.6898 10.6726H32.3105C33.6526 10.6726 34.7415 11.7615 34.7415 13.1036C34.7415 14.4458 33.6526 15.5347 32.3105 15.5347H30.6898C29.3477 15.5347 28.2588 14.4458 28.2588 13.1036C28.2588 11.7615 29.3477 10.6726 30.6898 10.6726Z" fill="#FFC400"/>
<path d="M31.7773 5.18504C31.6093 5.073 31.3904 5.073 31.2224 5.18504L30.332 5.77894C29.5429 6.30466 29.0688 7.18996 29.0688 8.13907V9.05172H33.9309V8.13907C33.9309 7.19097 33.4569 6.30466 32.6678 5.77894L31.7773 5.18504Z" fill="#FFC400"/>
<path d="M29.8795 8.24133H33.1209C34.0163 8.24133 34.7415 8.96659 34.7415 9.86202C34.7415 10.7575 34.0163 11.4827 33.1209 11.4827H29.8795C28.984 11.4827 28.2588 10.7575 28.2588 9.86202C28.2588 8.96659 28.984 8.24133 29.8795 8.24133Z" fill="#FF7B73"/>
<path d="M37.1725 17.9656H25.8277C24.9323 17.9656 24.207 17.2404 24.207 16.3449L29.0691 14.7242H33.9312L38.7932 16.3449C38.7932 17.2404 38.068 17.9656 37.1725 17.9656Z" fill="#FF655C"/>
</g>
<path d="M7.35695 5.51911C7.3874 5.42805 7.51619 5.42806 7.54663 5.51911L8.96676 9.76635C8.9804 9.80714 9.01859 9.83464 9.0616 9.83464H13.5602C13.6571 9.83464 13.6974 9.95865 13.6189 10.0156L9.985 12.6534C9.95005 12.6788 9.93533 12.7237 9.94852 12.7649L11.3363 17.094C11.3657 17.1859 11.2609 17.262 11.1826 17.2057L7.51019 14.5635C7.47531 14.5384 7.42828 14.5384 7.39339 14.5635L3.72132 17.2054C3.64299 17.2618 3.53817 17.1855 3.56772 17.0936L4.95488 12.7826C4.96813 12.7414 4.95338 12.6963 4.91832 12.6709L1.25006 10.0156C1.17151 9.95879 1.21173 9.83464 1.30869 9.83464H5.84193C5.88493 9.83464 5.92312 9.80714 5.93676 9.76636L7.35695 5.51911Z" fill="#FFD138"/>
<path d="M15.0118 2.22276C15.0761 2.15135 15.1943 2.20285 15.1857 2.29854L15.0745 3.54626C15.0707 3.58929 15.0949 3.62991 15.1346 3.64699L16.2856 4.14229C16.3746 4.1806 16.3625 4.31049 16.268 4.33172L15.0425 4.60683C15.0005 4.61625 14.9692 4.65147 14.9649 4.69428L14.8358 5.96275C14.8261 6.05856 14.6998 6.08657 14.6505 6.00386L14.0028 4.91847C13.9808 4.88149 13.9375 4.86279 13.8955 4.87204L12.6568 5.14464C12.5624 5.16542 12.4964 5.05348 12.5602 4.98092L13.3993 4.02732C13.4279 3.99479 13.4324 3.94754 13.4103 3.91027L12.767 2.82497C12.7176 2.74168 12.8036 2.64385 12.8925 2.68212L14.0561 3.18287C14.0954 3.19981 14.1412 3.18978 14.1699 3.15792L15.0118 2.22276Z" fill="#FFD138"/>
<path d="M20.249 7.15113C20.3363 7.11048 20.4249 7.20443 20.3793 7.28916L19.7853 8.39277C19.7648 8.43091 19.7712 8.47794 19.8011 8.50925L20.6645 9.41262C20.7314 9.48262 20.6697 9.59736 20.5744 9.58011L19.3371 9.35612C19.2949 9.34848 19.2526 9.36856 19.2318 9.40603L18.6121 10.5238C18.5654 10.608 18.4384 10.584 18.4256 10.4886L18.258 9.23893C18.2523 9.19608 18.2196 9.16177 18.1771 9.15389L16.9313 8.92297C16.8362 8.90534 16.8191 8.77634 16.9063 8.73448L18.0546 8.18358C18.0936 8.16488 18.1161 8.12327 18.1105 8.08042L17.9467 6.83037C17.9341 6.73453 18.0513 6.6784 18.1181 6.74828L18.9916 7.66215C19.0212 7.69314 19.0672 7.7018 19.1061 7.6837L20.249 7.15113Z" fill="#FFD138"/>
<path d="M16.9414 14.8961C16.8617 14.8419 16.8973 14.7174 16.9936 14.7135L18.2536 14.6621C18.2966 14.6604 18.3336 14.6313 18.3456 14.59L18.6925 13.3902C18.7193 13.2975 18.8489 13.2928 18.8824 13.3833L19.3159 14.5568C19.3307 14.5971 19.3696 14.6234 19.4125 14.6222L20.695 14.5857C20.7916 14.583 20.8356 14.7053 20.7592 14.7646L19.7616 15.5403C19.7273 15.567 19.7142 15.6127 19.729 15.6535L20.1604 16.8368C20.1935 16.9275 20.0916 17.0078 20.0112 16.9544L18.9481 16.2493C18.9124 16.2256 18.8656 16.2273 18.8317 16.2535L17.8286 17.0288C17.7521 17.0879 17.6445 17.0148 17.6714 16.9219L18.0208 15.7132C18.0328 15.6716 18.0168 15.627 17.981 15.6027L16.9414 14.8961Z" fill="#FFD138"/>
<path d="M16.328 19.8352C16.4179 19.87 16.4114 19.9993 16.3184 20.0249L15.1038 20.3587C15.0622 20.3702 15.0326 20.407 15.0304 20.4501L14.9668 21.6961C14.9618 21.7925 14.8367 21.8267 14.7835 21.7461L14.0929 20.7006C14.0693 20.6649 14.0256 20.6481 13.9842 20.659L12.7427 20.9837C12.6492 21.0082 12.5789 20.8991 12.6397 20.824L13.434 19.8437C13.4614 19.8099 13.4638 19.7623 13.44 19.7259L12.7497 18.6712C12.6968 18.5903 12.7779 18.4889 12.8684 18.5228L14.0643 18.9697C14.1045 18.9847 14.1498 18.9725 14.1769 18.9392L14.9768 17.9579C15.0378 17.883 15.1591 17.9297 15.1542 18.0262L15.09 19.2829C15.0878 19.326 15.1135 19.3657 15.1538 19.3812L16.328 19.8352Z" fill="#FFD138"/>
</svg>
