<svg width="48" height="48" viewBox="0 0 48 48" fill="none" xmlns="http://www.w3.org/2000/svg">
<path d="M0 8C0 3.58172 3.58172 0 8 0H40C44.4183 0 48 3.58172 48 8V40C48 44.4183 44.4183 48 40 48H8C3.58172 48 0 44.4183 0 40V8Z" fill="#00B3BD"/>
<mask id="mask0" mask-type="alpha" maskUnits="userSpaceOnUse" x="0" y="0" width="48" height="48">
<path d="M0 8C0 3.58172 3.58172 0 8 0H40C44.4183 0 48 3.58172 48 8V40C48 44.4183 44.4183 48 40 48H8C3.58172 48 0 44.4183 0 40V8Z" fill="#00B3BD"/>
</mask>
<g mask="url(#mask0)">
<path d="M31.8597 44.3783H15.6938V53.0001H31.8597V44.3783Z" fill="#80D9DE"/>
<path d="M35.7631 18.2435H12.1499C9.94076 18.2435 8.1499 20.0344 8.1499 22.2435V41.1866C8.1499 43.3957 9.94076 45.1866 12.1499 45.1866H35.7631C37.9722 45.1866 39.7631 43.3957 39.7631 41.1866V22.2435C39.7631 20.0344 37.9722 18.2435 35.7631 18.2435Z" fill="#80D9DE"/>
<path d="M23.9564 44.8274C30.7021 44.8274 36.1705 39.3589 36.1705 32.6132C36.1705 25.8675 30.7021 20.399 23.9564 20.399C17.2107 20.399 11.7422 25.8675 11.7422 32.6132C11.7422 39.3589 17.2107 44.8274 23.9564 44.8274Z" fill="#00B3BD" fill-opacity="0.5"/>
<mask id="mask1" mask-type="alpha" maskUnits="userSpaceOnUse" x="13" y="21" width="22" height="23">
<path fill-rule="evenodd" clip-rule="evenodd" d="M13.269 32.6133C13.269 38.5154 18.0534 43.3007 23.9564 43.3007C29.8595 43.3007 34.6439 38.5154 34.6439 32.6133C34.6439 26.7112 29.8595 21.9259 23.9564 21.9259C18.0534 21.9259 13.269 26.7112 13.269 32.6133Z" fill="white"/>
</mask>
<g mask="url(#mask1)">
<mask id="mask2" mask-type="alpha" maskUnits="userSpaceOnUse" x="10" y="18" width="28" height="29">
<path fill-rule="evenodd" clip-rule="evenodd" d="M10.3052 32.6133C10.3052 40.1521 16.4163 46.2644 23.9563 46.2644C31.4963 46.2644 37.6075 40.1521 37.6075 32.6133C37.6075 25.0745 31.4963 18.9622 23.9563 18.9622C16.4163 18.9622 10.3052 25.0745 10.3052 32.6133Z" fill="white"/>
</mask>
<g mask="url(#mask2)">
<path fill-rule="evenodd" clip-rule="evenodd" d="M5.23047 16.8102L7.52386 14.5851L43.1431 49.1418L40.8508 51.3669L5.23047 16.8102Z" fill="white"/>
</g>
<mask id="mask3" mask-type="alpha" maskUnits="userSpaceOnUse" x="10" y="18" width="28" height="29">
<path fill-rule="evenodd" clip-rule="evenodd" d="M10.3052 32.6133C10.3052 40.1521 16.4163 46.2644 23.9563 46.2644C31.4963 46.2644 37.6075 40.1521 37.6075 32.6133C37.6075 25.0745 31.4963 18.9622 23.9563 18.9622C16.4163 18.9622 10.3052 25.0745 10.3052 32.6133Z" fill="white"/>
</mask>
<g mask="url(#mask3)">
<path fill-rule="evenodd" clip-rule="evenodd" d="M53.626 62.6597L-0.371094 10.2745L0.786978 9.15173L54.7841 61.5369L53.626 62.6597Z" fill="#FF4338"/>
</g>
<mask id="mask4" mask-type="alpha" maskUnits="userSpaceOnUse" x="10" y="18" width="28" height="29">
<path fill-rule="evenodd" clip-rule="evenodd" d="M10.3052 32.6133C10.3052 40.1521 16.4163 46.2644 23.9563 46.2644C31.4963 46.2644 37.6075 40.1521 37.6075 32.6133C37.6075 25.0745 31.4963 18.9622 23.9563 18.9622C16.4163 18.9622 10.3052 25.0745 10.3052 32.6133Z" fill="white"/>
</mask>
<g mask="url(#mask4)">
<path fill-rule="evenodd" clip-rule="evenodd" d="M1.96143 51.7968L44.0092 11.0049L46.0865 13.0196L4.03868 53.8115L1.96143 51.7968Z" fill="white"/>
</g>
<mask id="mask5" mask-type="alpha" maskUnits="userSpaceOnUse" x="10" y="18" width="28" height="29">
<path fill-rule="evenodd" clip-rule="evenodd" d="M10.3052 32.6133C10.3052 40.1521 16.4163 46.2644 23.9563 46.2644C31.4963 46.2644 37.6075 40.1521 37.6075 32.6133C37.6075 25.0745 31.4963 18.9622 23.9563 18.9622C16.4163 18.9622 10.3052 25.0745 10.3052 32.6133Z" fill="white"/>
</mask>
<g mask="url(#mask5)">
<path fill-rule="evenodd" clip-rule="evenodd" d="M0.763338 56.0197L-0.313965 54.9742L53.765 2.51062L54.8423 3.55607L0.763338 56.0197Z" fill="#FF4338"/>
</g>
</g>
<mask id="mask6" mask-type="alpha" maskUnits="userSpaceOnUse" x="13" y="21" width="22" height="23">
<path fill-rule="evenodd" clip-rule="evenodd" d="M13.269 32.6133C13.269 38.5154 18.0534 43.3007 23.9564 43.3007C29.8595 43.3007 34.6439 38.5154 34.6439 32.6133C34.6439 26.7112 29.8595 21.9259 23.9564 21.9259C18.0534 21.9259 13.269 26.7112 13.269 32.6133Z" fill="white"/>
</mask>
<g mask="url(#mask6)">
<path fill-rule="evenodd" clip-rule="evenodd" d="M20.0758 44.0896V36.2423H2.49414V28.9838H20.0758V20.9442H27.6122V28.9838H55.5438V36.2423H27.6122V44.0896H20.0758Z" fill="white"/>
</g>
<mask id="mask7" mask-type="alpha" maskUnits="userSpaceOnUse" x="13" y="21" width="22" height="23">
<path fill-rule="evenodd" clip-rule="evenodd" d="M13.269 32.6133C13.269 38.5154 18.0534 43.3007 23.9564 43.3007C29.8595 43.3007 34.6439 38.5154 34.6439 32.6133C34.6439 26.7112 29.8595 21.9259 23.9564 21.9259C18.0534 21.9259 13.269 26.7112 13.269 32.6133Z" fill="white"/>
</mask>
<g mask="url(#mask7)">
<path fill-rule="evenodd" clip-rule="evenodd" d="M59.8617 30.0198H26.517V19.9674H21.1715V30.0198H1.88965V35.2068H21.1715V44.4825H26.5179V35.2068H59.8617V30.0198Z" fill="#FF4338"/>
</g>
<path d="M33.6439 32.6133C33.6439 37.9635 29.3067 42.3007 23.9564 42.3007C18.6062 42.3007 14.269 37.9635 14.269 32.6133C14.269 27.2631 18.6062 22.9259 23.9564 22.9259C29.3067 22.9259 33.6439 27.2631 33.6439 32.6133Z" stroke="white" stroke-width="2"/>
<path d="M29.7042 11.3043H18.2085V14.1782H29.7042V11.3043Z" fill="white"/>
<path d="M29.7042 11.3045H18.2085L21.0824 8.43054H26.8303L29.7042 11.3045Z" fill="#FF4338"/>
<path d="M26.8304 6.26892H21.0825V8.4305H26.8304V6.26892Z" fill="white"/>
<path d="M26.8304 6.26886H21.0825L21.8681 4.8319L23.5174 1.80556C23.7069 1.45793 24.206 1.45793 24.3955 1.80556L26.0448 4.8319L26.8304 6.26886Z" fill="#FF4338"/>
<path d="M31.866 14.0095H16.0376C14.933 14.0095 14.0376 14.905 14.0376 16.0095V19.1724H33.866V16.0095C33.866 14.905 32.9706 14.0095 31.866 14.0095Z" fill="#80D9DE"/>
<path d="M19.2583 17.2462C19.2583 16.7278 19.6786 16.3075 20.197 16.3075C20.7154 16.3075 21.1357 16.7278 21.1357 17.2462V18.6543H19.2583V17.2462Z" fill="white"/>
<path d="M23.0132 17.2462C23.0132 16.7278 23.4335 16.3075 23.9519 16.3075C24.4703 16.3075 24.8906 16.7278 24.8906 17.2462V18.6543H23.0132V17.2462Z" fill="white"/>
<path d="M26.7681 17.2462C26.7681 16.7278 27.1883 16.3075 27.7068 16.3075C28.2252 16.3075 28.6455 16.7278 28.6455 17.2462V18.6543H26.7681V17.2462Z" fill="white"/>
<g opacity="0.5">
<rect x="19.646" y="46.6235" width="1.43696" height="1.43696" fill="white"/>
<rect x="23.2383" y="46.6234" width="1.43696" height="1.43696" fill="white"/>
<rect x="26.8311" y="46.6234" width="1.43696" height="1.43696" fill="white"/>
</g>
</g>
</svg>
