<svg width="48" height="48" viewBox="0 0 48 48" fill="none" xmlns="http://www.w3.org/2000/svg">
<path d="M0 8C0 3.58172 3.58172 0 8 0H40C44.4183 0 48 3.58172 48 8V40C48 44.4183 44.4183 48 40 48H8C3.58172 48 0 44.4183 0 40V8Z" fill="#FF4338"/>
<mask id="mask0" mask-type="alpha" maskUnits="userSpaceOnUse" x="0" y="0" width="48" height="48">
<path d="M0 8C0 3.58172 3.58172 0 8 0H40C44.4183 0 48 3.58172 48 8V40C48 44.4183 44.4183 48 40 48H8C3.58172 48 0 44.4183 0 40V8Z" fill="#0DE298"/>
</mask>
<g mask="url(#mask0)">
<path d="M4.49804 20.5762L0.966797 22.2533L4.28176 29.2333L7.813 27.5562L4.49804 20.5762Z" fill="#1AA2AA"/>
<path d="M8.04003 18.892L4.50879 20.5691L7.82376 27.5491L11.355 25.872L8.04003 18.892Z" fill="white"/>
<path d="M11.5654 17.2149L8.03418 18.892L11.3491 25.8719L14.8804 24.1949L11.5654 17.2149Z" fill="#FF655C"/>
<path d="M18.7016 30.4359L12.1446 16.6296C11.998 16.3209 11.6289 16.1895 11.3202 16.3361C11.0115 16.4827 10.8801 16.8518 11.0267 17.1605L17.5837 30.9668C17.7303 31.2755 18.0994 31.4069 18.4081 31.2603C18.7168 31.1137 18.8482 30.7446 18.7016 30.4359Z" fill="white"/>
<path d="M43.4688 20.5765L47 22.2535L43.6851 29.2334L40.1539 27.5564L43.4688 20.5765Z" fill="#1AA2AA"/>
<path d="M39.9268 18.8919L43.458 20.569L40.1431 27.5489L36.6119 25.8718L39.9268 18.8919Z" fill="white"/>
<path d="M36.4014 17.2152L39.9326 18.8922L36.6177 25.8721L33.0865 24.195L36.4014 17.2152Z" fill="#FF655C"/>
<path d="M29.2668 30.4326L35.8207 16.6328C35.9682 16.3224 36.3394 16.1902 36.6498 16.3377C36.9602 16.4851 37.0924 16.8563 36.945 17.1667L30.3911 30.9665C30.2436 31.277 29.8724 31.4091 29.562 31.2617C29.2516 31.1143 29.1194 30.7431 29.2668 30.4326Z" fill="white"/>
<path d="M24.0002 2C23.8664 2 23.7593 2.10709 23.7593 2.24094V6.97953C23.7593 7.11339 23.8664 7.22047 24.0002 7.22047C24.1341 7.22047 24.2412 7.11339 24.2412 6.97953V2.24094C24.2679 2.10709 24.1609 2 24.0002 2Z" fill="#40C6CD"/>
<path d="M41 50.2159H33.5307C33.1024 47.8332 29.0063 45.9592 24 45.9592C18.9937 45.9592 14.8976 47.8332 14.4693 50.2159H7C7 50.2159 12.0598 45.3167 15.4866 38.008C15.9417 37.0175 16.4236 35.893 16.8787 34.6348C17.1732 33.8049 17.4677 32.9214 17.7622 31.9844C20.252 24.1135 22.3134 13.1371 22.715 4.81116H25.2583C25.6598 13.1371 27.7213 24.1135 30.211 31.9844C30.5055 32.9214 30.8 33.8049 31.0945 34.6348C31.5496 35.893 32.0047 37.0175 32.4866 38.008C35.9669 45.3167 41 50.2159 41 50.2159Z" fill="#73D4DA"/>
<path d="M24.5886 14.6631H23.4374L22.6343 26.3623H25.3918L24.9902 20.5127L24.5886 14.6631Z" fill="#FF4338"/>
<path d="M25.4722 31.9843H22.5541L20.9478 40.7386H27.0785L25.4722 31.9843Z" fill="#FF4338"/>
<g clip-path="url(#clip0)">
<path d="M37.2254 40.7385H10.8018V43.6834H37.2254V40.7385Z" fill="#1AA2AA"/>
<path d="M37.2254 40.0436H10.8018V41.3829H37.2254V40.0436Z" fill="#40C6CD"/>
</g>
<path d="M29.8901 30.5118H18.1105C17.709 30.5118 17.3877 30.8331 17.3877 31.2347C17.3877 31.6362 17.709 31.9575 18.1105 31.9575H29.8901C30.2916 31.9575 30.6129 31.6362 30.6129 31.2347C30.6129 30.8599 30.2916 30.5118 29.8901 30.5118Z" fill="#40C6CD"/>
<g clip-path="url(#clip1)">
<path d="M28.3501 26.1747H19.6761C18.8259 26.1747 18.1367 26.8639 18.1367 27.7141C18.1367 28.5642 18.8259 29.2534 19.6761 29.2534H28.3501C29.2003 29.2534 29.8895 28.5642 29.8895 27.7141C29.8895 26.8639 29.2003 26.1747 28.3501 26.1747Z" fill="#40C6CD"/>
<path d="M29.8895 28.2629H18.1367V29.2535H29.8895V28.2629Z" fill="#1AA2AA"/>
<path d="M20.3321 27.1922C20.3321 26.8441 20.0644 26.5764 19.7163 26.5764C19.3683 26.5764 19.1006 26.8441 19.1006 27.1922C19.1006 27.5402 19.3683 27.8079 19.7163 27.8079C20.0644 27.8079 20.3321 27.5402 20.3321 27.1922Z" fill="white"/>
<path d="M22.4737 27.192C22.4737 26.844 22.206 26.5763 21.8579 26.5763C21.5099 26.5763 21.2422 26.844 21.2422 27.192C21.2422 27.5401 21.5099 27.8078 21.8579 27.8078C22.206 27.8078 22.4737 27.5401 22.4737 27.192Z" fill="white"/>
<path d="M24.6158 27.192C24.6158 26.844 24.3481 26.5763 24 26.5763C23.652 26.5763 23.3843 26.844 23.3843 27.192C23.3843 27.5401 23.652 27.8078 24 27.8078C24.3481 27.8078 24.6158 27.5401 24.6158 27.192Z" fill="white"/>
<path d="M26.7842 27.192C26.7842 26.844 26.5165 26.5763 26.1685 26.5763C25.8205 26.5763 25.5527 26.844 25.5527 27.192C25.5527 27.5401 25.8205 27.8078 26.1685 27.8078C26.4897 27.8078 26.7842 27.5401 26.7842 27.192Z" fill="white"/>
<path d="M28.9258 27.192C28.9258 26.844 28.6581 26.5763 28.3101 26.5763C27.9621 26.5763 27.6943 26.844 27.6943 27.192C27.6943 27.5401 27.9621 27.8078 28.3101 27.8078C28.6581 27.8078 28.9258 27.5401 28.9258 27.192Z" fill="white"/>
</g>
<path d="M25.7668 9.92444H22.2329C21.8041 9.92444 21.4565 10.272 21.4565 10.7008C21.4565 11.1296 21.8041 11.4772 22.2329 11.4772H25.7668C26.1956 11.4772 26.5432 11.1296 26.5432 10.7008C26.5432 10.272 26.1956 9.92444 25.7668 9.92444Z" fill="#40C6CD"/>
<path d="M26.1686 7.81262H21.8584V8.34806H26.1686V7.81262Z" fill="#40C6CD"/>
<path d="M24.0001 4.03467C22.8222 4.03467 21.8584 4.99845 21.8584 6.1764V7.80947H26.1686V6.1764C26.1686 4.99845 25.2049 4.03467 24.0001 4.03467Z" fill="#40C6CD"/>
<path d="M22.9823 7.3574V6.68755C22.9823 6.50273 22.8325 6.35291 22.6476 6.35291C22.4628 6.35291 22.313 6.50273 22.313 6.68755V7.3574H22.9823Z" fill="white"/>
<path d="M24.3475 7.3574V6.68755C24.3475 6.50273 24.1977 6.35291 24.0129 6.35291C23.828 6.35291 23.6782 6.50273 23.6782 6.68755V7.3574H24.3475Z" fill="white"/>
<path d="M25.7396 7.3574V6.68755C25.7396 6.50273 25.5898 6.35291 25.405 6.35291C25.2201 6.35291 25.0703 6.50273 25.0703 6.68755V7.3574H25.7396Z" fill="white"/>
</g>
<defs>
<clipPath id="clip0">
<rect x="10.8018" y="40.0436" width="26.4236" height="3.63989" rx="1.81994" fill="white"/>
</clipPath>
<clipPath id="clip1">
<rect width="11.7528" height="3.07884" fill="white" transform="translate(18.1367 26.1747)"/>
</clipPath>
</defs>
</svg>
