<svg width="48" height="48" viewBox="0 0 48 48" fill="none" xmlns="http://www.w3.org/2000/svg">
<path d="M0 8C0 3.58172 3.58172 0 8 0H40C44.4183 0 48 3.58172 48 8V40C48 44.4183 44.4183 48 40 48H8C3.58172 48 0 44.4183 0 40V8Z" fill="#FFC400"/>
<mask id="mask0" mask-type="alpha" maskUnits="userSpaceOnUse" x="0" y="0" width="48" height="48">
<path d="M0 8C0 3.58172 3.58172 0 8 0H40C44.4183 0 48 3.58172 48 8V40C48 44.4183 44.4183 48 40 48H8C3.58172 48 0 44.4183 0 40V8Z" fill="#00B3BD"/>
</mask>
<g mask="url(#mask0)">
<path d="M-1.63285 16.4218C-4.20022 16.4218 -6.28125 18.5765 -6.28125 21.2348C-6.28125 21.4948 -6.26105 21.7503 -6.22208 21.9998H2.95639C2.99536 21.7503 3.01556 21.4948 3.01556 21.2348C3.01556 18.5765 0.934528 16.4218 -1.63285 16.4218Z" fill="white"/>
<path d="M49.6316 16.4218C47.0646 16.4218 44.9839 18.5765 44.9839 21.2348C44.9839 21.4948 45.0041 21.7503 45.043 21.9998H54.2215C54.2605 21.7503 54.2807 21.4948 54.2807 21.2348C54.2793 18.5765 52.1985 16.4218 49.6316 16.4218Z" fill="white"/>
<path d="M3.28118 22.2655H-6.54688V36.0779H3.28118V22.2655Z" fill="#FF4338"/>
<path d="M-1.68622 27.0476C-2.63173 27.0767 -3.35938 27.9194 -3.35938 28.8858V32.0936H0.0937254V28.813C0.0923016 27.8175 -0.707963 27.017 -1.68622 27.0476Z" fill="#FFC400"/>
<path d="M4.07804 21.9999C4.07804 21.4134 3.59664 20.9374 3.00349 20.9374H-6.2692C-6.86235 20.9374 -7.34375 21.4134 -7.34375 21.9999C-7.34375 22.5864 -6.86235 23.0624 -6.2692 23.0624H3.00206C3.59664 23.0624 4.07804 22.5864 4.07804 21.9999Z" fill="#FF7B73"/>
<path d="M54.5463 22.2655H44.7183V36.0779H54.5463V22.2655Z" fill="#FF4338"/>
<path d="M49.5789 27.0476C48.6334 27.0767 47.9058 27.9194 47.9058 28.8858V32.0936H51.3589V28.813C51.3574 27.8175 50.5557 27.017 49.5789 27.0476Z" fill="#FFC400"/>
<path d="M16.0317 32.0935H11.7794C11.487 32.0935 11.25 32.32 11.25 32.5994V36.0779H16.5625V32.6008C16.561 32.32 16.324 32.0935 16.0317 32.0935Z" fill="#FF655C"/>
<path d="M35.9531 61.3121H44.7632C45.1064 61.0824 45.4453 60.8454 45.7812 60.6041V36.0779H35.9531V61.3121Z" fill="#FF655C"/>
<path d="M45.7808 60.5152C49.687 57.7182 53.0301 54.1938 55.6088 50.1418V36.0779H45.7808V60.5152Z" fill="#FF655C"/>
<path d="M-7.60938 50.1424C-5.03061 54.1942 -1.6876 57.7183 2.21868 60.5152V36.0779H-7.60938V50.1424Z" fill="#FF655C"/>
<path d="M2.21875 60.6041C2.55466 60.8454 2.89351 61.0809 3.23676 61.3121H12.0468V36.0779H2.21875V60.6041Z" fill="#FF655C"/>
<path d="M15.7651 36.0779H12.0464V61.3121H15.7651V36.0779Z" fill="#FF655C"/>
<path d="M35.9526 36.0779H31.9683V61.3121H35.9526V36.0779Z" fill="#FF655C"/>
<path d="M25.7791 3.97652C25.7791 3.65681 25.5199 3.39685 25.1994 3.39685H22.7799C22.4594 3.39685 22.2002 3.65603 22.2002 3.97652C22.2002 4.29701 22.4594 4.55619 22.7799 4.55619H25.2002C25.5199 4.55541 25.7791 4.29623 25.7791 3.97652Z" fill="white"/>
<path d="M24.5695 2.57967V7.42033C24.5695 7.74004 24.3103 8 23.9898 8C23.6693 8 23.4102 7.74082 23.4102 7.42033V2.57967C23.4109 2.25918 23.6701 2 23.9898 2C24.3103 2 24.5695 2.25918 24.5695 2.57967Z" fill="white"/>
<path d="M25.0371 7.36364V6.2656C25.0371 6.00875 24.8291 5.80078 24.5723 5.80078H23.4067C23.1499 5.80078 22.9419 6.00875 22.9419 6.2656V7.36364H25.0371Z" fill="white"/>
<g clip-path="url(#clip0)">
<path d="M29.7755 20.374H18.4341C18.4699 18.9653 18.6539 15.0617 19.5997 12.1938C20.4048 9.75189 21.9001 8.02312 22.7615 7.1789C23.1475 7.14362 23.5412 7.12598 23.9373 7.12598C24.4613 7.12598 24.9777 7.15622 25.4863 7.21418C26.3503 8.071 27.8175 9.78717 28.6124 12.1938C29.5556 15.0591 29.7397 18.9653 29.7755 20.374Z" fill="#FF655C"/>
<path d="M22.759 7.17896C21.9002 8.0257 20.4023 9.75446 19.5971 12.1939C18.6514 15.0592 18.4673 18.9653 18.4316 20.374H10.5C10.5 13.4464 15.8882 7.76361 22.759 7.17896Z" fill="#407BFF"/>
<path d="M22.759 7.17896C21.9002 8.0257 20.4023 9.75446 19.5971 12.1939C18.6514 15.0592 18.4673 18.9653 18.4316 20.374H10.5C10.5 13.4464 15.8882 7.76361 22.759 7.17896Z" fill="#FF4338"/>
<path d="M37.3722 20.374H29.7755C29.7397 18.9653 29.5556 15.0617 28.6099 12.1939C27.8149 9.7847 26.3477 8.07106 25.4863 7.21423C32.1756 7.97025 37.3722 13.5724 37.3722 20.374Z" fill="#FF4338"/>
</g>
<path d="M37.5467 20.6718H10.1875V36.0779H37.5467V20.6718Z" fill="#FF4338"/>
<path d="M13.8605 24.3045C13.2631 24.322 12.8013 24.8436 12.8013 25.4424V29.0046C12.8013 29.1707 12.9368 29.3062 13.1029 29.3062H14.5962C14.8118 29.3062 14.9867 29.1314 14.9867 28.9157V25.3972C14.9867 24.7824 14.4797 24.287 13.8605 24.3045Z" fill="white"/>
<path d="M23.9137 22.3376C23.3163 22.3551 22.8545 22.8767 22.8545 23.4755V27.0377C22.8545 27.2038 22.99 27.3393 23.1561 27.3393H24.6494C24.8651 27.3393 25.0399 27.1644 25.0399 26.9488V23.4303C25.0399 22.8155 24.5329 22.3201 23.9137 22.3376Z" fill="white"/>
<path d="M14.9401 27.8436H12.8714C12.4155 27.8436 12.0464 28.233 12.0464 28.714V35.2076C12.0464 35.6885 12.4155 36.0779 12.8714 36.0779H14.9401C15.396 36.0779 15.7651 35.6885 15.7651 35.2076V28.714C15.7651 28.2345 15.396 27.8436 14.9401 27.8436Z" fill="#FF655C"/>
<path d="M34.0607 24.391C33.4784 24.4086 33.0308 24.9348 33.0308 25.539V29.1331C33.0308 29.3006 33.1625 29.4373 33.324 29.4373H34.7761C34.9857 29.4373 35.1557 29.2609 35.1557 29.0434V25.4934C35.1557 24.8731 34.6627 24.3733 34.0607 24.391Z" fill="white"/>
<path d="M35.0937 27.922H32.9054C32.4232 27.922 32.0327 28.3125 32.0327 28.7947V35.3058C32.0327 35.788 32.4232 36.1785 32.9054 36.1785H35.0937C35.576 36.1785 35.9664 35.788 35.9664 35.3058V28.7947C35.9664 28.3139 35.576 27.922 35.0937 27.922Z" fill="#FF655C"/>
<path d="M26.6543 27.8436H21.3433V31.8293V32.7113V36.0779H26.6557V32.7113V31.8293V27.8436H26.6543Z" fill="#FF655C"/>
<path d="M25.0895 25.9843H22.9081L21.3433 27.8436H26.6557L25.0895 25.9843Z" fill="#FF655C"/>
<path d="M40.468 19.875C40.468 19.2885 39.9783 18.8125 39.375 18.8125H8.62381C8.02045 18.8125 7.53076 19.2885 7.53076 19.875C7.53076 20.4615 8.02045 20.9375 8.62381 20.9375H39.375C39.9783 20.9375 40.468 20.4615 40.468 19.875Z" fill="white"/>
<path d="M36.2192 32.0935H31.9669C31.6745 32.0935 31.4375 32.32 31.4375 32.5994V36.0779H36.75V32.6008C36.75 32.32 36.5115 32.0935 36.2192 32.0935Z" fill="#FF655C"/>
<path d="M31.9686 36.0779H15.7656V61.3121H31.9686V36.0779Z" fill="#FF4338"/>
<path d="M56.9051 37.1404H-8.90559C-9.5097 37.1404 -10 36.6644 -10 36.0779C-10 35.4914 -9.5097 35.0154 -8.90559 35.0154H56.9051C57.5092 35.0154 57.9995 35.4914 57.9995 36.0779C57.9995 36.6644 57.5092 37.1404 56.9051 37.1404Z" fill="#FF7B73"/>
<path d="M55.3432 21.9999C55.3432 21.4134 54.8505 20.9374 54.2435 20.9374H44.7554C44.1484 20.9374 43.6558 21.4134 43.6558 21.9999C43.6558 22.5864 44.1484 23.0624 44.7554 23.0624H54.2435C54.8505 23.0624 55.3432 22.5864 55.3432 21.9999Z" fill="#FF7B73"/>
<path d="M24.0002 43.7185C20.9196 43.7185 18.4214 46.1973 18.4214 49.2571V62.3121H29.5776V49.2571C29.579 46.1987 27.0808 43.7185 24.0002 43.7185Z" fill="#FF655C"/>
<path d="M23.9995 45.8435C22.2392 45.8435 20.812 47.3076 20.812 49.1135V54.603V56.8226V62.3121H27.187V56.8226V54.603V49.1135C27.187 47.3076 25.7598 45.8435 23.9995 45.8435Z" fill="white"/>
<path d="M5.3716 40.6813C3.33032 40.3562 1.93233 38.4286 2.25739 36.3873L3.51217 28.5154L10.9204 29.6951L9.66558 37.5671C9.34052 39.6083 7.41289 41.0063 5.3716 40.6813Z" fill="#FFC400"/>
<path d="M2.60059 34.4616C2.97793 36.0051 4.24407 37.2485 5.91256 37.5145C7.57878 37.7804 9.16998 36.9917 10.0088 35.6414L10.8726 30.2336L3.46438 29.0538L2.60059 34.4616Z" fill="#FF4338"/>
<path d="M3.14648 30.8064C3.52383 32.3499 4.78997 33.5933 6.45846 33.8593C8.12468 34.1252 9.71588 33.3364 10.5547 31.9862L10.9206 29.6926L3.51246 28.5128L3.14648 30.8064Z" fill="black"/>
<path d="M18.1164 42.1265C16.0524 42.0152 14.4635 40.2444 14.5749 38.1781L15.0045 30.2175L22.4945 30.6222L22.0649 38.5827C21.9512 40.649 20.1804 42.2379 18.1164 42.1265Z" fill="#FFC400"/>
<path d="M14.7158 36.2277C15.25 37.7235 16.6412 38.8282 18.3256 38.9191C20.0123 39.0101 21.5125 38.0622 22.2058 36.6324L22.5036 31.1632L15.0136 30.7585L14.7158 36.2277Z" fill="#FF4338"/>
<path d="M14.8799 32.5361C15.4141 34.0319 16.8052 35.1366 18.4896 35.2275C20.1763 35.3185 21.6766 34.3706 22.3699 32.9408L22.4949 30.6222L15.0049 30.2175L14.8799 32.5361Z" fill="black"/>
<path d="M30.2397 42.0903C28.1757 42.2131 26.3958 40.6355 26.2708 38.5715L25.7935 30.6132L33.2812 30.1654L33.7586 38.1237C33.8836 40.1877 32.306 41.9676 30.2397 42.0903Z" fill="#FFC400"/>
<path d="M26.1906 36.6167C26.8907 38.042 28.3978 38.9831 30.0822 38.8808C31.7666 38.7807 33.151 37.6669 33.6761 36.1666L33.351 30.6997L25.8633 31.1475L26.1906 36.6167Z" fill="#FF4338"/>
<path d="M25.9349 32.9318C26.635 34.357 28.1421 35.2981 29.8265 35.1958C31.5109 35.0958 32.8953 33.982 33.4204 32.4817L33.2817 30.1631L25.7939 30.6109L25.9349 32.9318Z" fill="black"/>
<path d="M42.8715 41.0015C40.8211 41.2788 38.9299 39.8354 38.6525 37.7873L37.5864 29.8881L45.0196 28.8856L46.0857 36.7848C46.363 38.8329 44.9196 40.7264 42.8715 41.0015Z" fill="#FFC400"/>
<path d="M38.427 35.8437C39.2316 37.2121 40.8047 38.0396 42.4777 37.8145C44.1507 37.5895 45.4487 36.3756 45.8601 34.8412L45.1305 29.413L37.6973 30.4154L38.427 35.8437Z" fill="#FF4338"/>
<path d="M37.8978 32.1885C38.7025 33.5569 40.2756 34.3844 41.9486 34.1593C43.6216 33.9343 44.9196 32.7204 45.331 31.186L45.0196 28.8856L37.5864 29.8881L37.8978 32.1885Z" fill="black"/>
<path d="M25.7317 30.8336C19.3851 30.8632 12.8907 30.404 6.32132 29.4538C-10.9319 26.9647 -22.8818 21.8933 -23 21.8433L-22.7181 21.1887C-22.5999 21.2387 -10.7205 26.2782 6.44634 28.7537C16.5232 30.2062 26.425 30.5063 35.8768 29.6425C47.6812 28.5628 58.8128 25.6554 68.9624 21L69.2602 21.6478C59.0333 26.3373 47.8199 29.2674 35.9268 30.3517C32.5807 30.6586 29.1778 30.8177 25.7317 30.8336Z" fill="white"/>
</g>
<defs>
<clipPath id="clip0">
<rect width="27" height="13.5" fill="white" transform="translate(10.5 7)"/>
</clipPath>
</defs>
</svg>
