<svg width="48" height="48" viewBox="0 0 48 48" fill="none" xmlns="http://www.w3.org/2000/svg">
<path d="M0 8C0 3.58172 3.58172 0 8 0H40C44.4183 0 48 3.58172 48 8V40C48 44.4183 44.4183 48 40 48H8C3.58172 48 0 44.4183 0 40V8Z" fill="#FFCCC9"/>
<mask id="mask0" mask-type="alpha" maskUnits="userSpaceOnUse" x="0" y="0" width="48" height="48">
<path d="M0 8C0 3.58172 3.58172 0 8 0H40C44.4183 0 48 3.58172 48 8V40C48 44.4183 44.4183 48 40 48H8C3.58172 48 0 44.4183 0 40V8Z" fill="#FFC400"/>
</mask>
<g mask="url(#mask0)">
<path d="M23.9963 17.25C27.3284 17.25 26.8733 18.7216 28.6098 18.6795C30.3463 18.6386 33.1013 17.7346 34.7894 20.909C36.4577 24.0462 43.2457 40.6543 49.2851 49.6807C49.4102 49.8676 49.3853 50.1122 49.2174 50.2617C42.5072 56.2364 24.1076 55.6068 23.9958 55.6029C23.9957 55.6029 24.0004 55.6029 24.0005 55.6029C24.0007 55.6029 24.0054 55.6029 24.0053 55.6029C23.8935 55.6068 5.49504 56.2364 -1.21615 50.2618C-1.38411 50.1123 -1.40901 49.8675 -1.28394 49.6807C4.75755 40.6542 11.5455 24.0462 13.2138 20.909C14.9019 17.7346 17.6569 18.6386 19.3934 18.6795C21.1309 18.7216 20.6842 17.25 24.0079 17.25H23.9963Z" fill="#FF4338"/>
<path d="M24.0185 29.1221C24.0185 29.1224 24.0188 29.1226 24.0191 29.1226C28.8779 29.122 27.5704 21.4925 30.3947 23.8081C31.4879 24.7047 32.4928 25.596 34.4847 28.4226C37.2618 32.3643 38.7029 29.3928 37.861 27.5322C36.4346 24.3809 35.3488 21.9318 34.8053 20.9101C33.1172 17.7356 30.3622 18.6396 28.6257 18.6806C26.8871 18.7216 27.3328 17.25 24.0101 17.25H24.0206H23.9965H24.007C20.6843 17.25 21.13 18.7216 19.3935 18.6795C17.657 18.6386 14.902 17.7346 13.2139 20.909C12.6704 21.9307 11.5846 24.3799 10.1582 27.5312C9.31626 29.3928 10.7563 32.3633 13.5345 28.4215C15.5264 25.595 16.5313 24.7036 17.6245 23.807C20.4489 21.4913 19.1413 29.1216 24.0007 29.1216H24.018C24.0183 29.1216 24.0185 29.1218 24.0185 29.1221Z" fill="white"/>
<circle cx="41.25" cy="7" r="12" fill="white"/>
<circle cx="41" cy="7" r="7" fill="#FF4338"/>
</g>
</svg>
