<svg width="81" height="19" viewBox="0 0 81 19" fill="none" xmlns="http://www.w3.org/2000/svg">
<path d="M8.65577 3.53556C8.88975 3.14676 9.45344 3.14676 9.68742 3.53556L11.641 6.78174C11.7251 6.92142 11.8622 7.02104 12.021 7.05782L15.712 7.91266C16.1541 8.01505 16.3283 8.55114 16.0308 8.89382L13.5472 11.7549C13.4403 11.878 13.3879 12.0392 13.402 12.2016L13.7296 15.9761C13.7688 16.4282 13.3128 16.7595 12.895 16.5825L9.40644 15.1046C9.25634 15.041 9.08685 15.041 8.93675 15.1046L5.44821 16.5825C5.03038 16.7595 4.57435 16.4282 4.61359 15.9761L4.94116 12.2016C4.95526 12.0392 4.90289 11.878 4.79602 11.7549L2.31241 8.89382C2.01494 8.55114 2.18913 8.01505 2.63121 7.91266L6.3222 7.05782C6.48101 7.02104 6.61813 6.92142 6.70219 6.78174L8.65577 3.53556Z" fill="#FFC400"/>
<path d="M39.6177 3.53422C39.8517 3.14541 40.4154 3.14541 40.6493 3.53422L42.6029 6.7804C42.687 6.92008 42.8241 7.01969 42.9829 7.05648L46.6739 7.91132C47.116 8.0137 47.2902 8.5498 46.9927 8.89248L44.5091 11.7536C44.4022 11.8767 44.3498 12.0379 44.3639 12.2003L44.6915 15.9748C44.7308 16.4269 44.2747 16.7582 43.8569 16.5812L40.3684 15.1032C40.2182 15.0396 40.0488 15.0396 39.8987 15.1032L36.4101 16.5812C35.9923 16.7582 35.5363 16.4269 35.5755 15.9748L35.9031 12.2003C35.9172 12.0379 35.8648 11.8767 35.7579 11.7536L33.2743 8.89248C32.9769 8.5498 33.151 8.0137 33.5931 7.91132L37.2841 7.05648C37.4429 7.01969 37.58 6.92008 37.6641 6.7804L39.6177 3.53422Z" fill="#FFC400"/>
<path d="M23.4917 3.53422C23.7257 3.14541 24.2894 3.14541 24.5234 3.53422L26.4769 6.7804C26.561 6.92008 26.6981 7.01969 26.8569 7.05648L30.5479 7.91132C30.99 8.0137 31.1642 8.5498 30.8667 8.89248L28.3831 11.7536C28.2762 11.8767 28.2239 12.0379 28.238 12.2003L28.5655 15.9748C28.6048 16.4269 28.1487 16.7582 27.7309 16.5812L24.2424 15.1032C24.0923 15.0396 23.9228 15.0396 23.7727 15.1032L20.2841 16.5812C19.8663 16.7582 19.4103 16.4269 19.4495 15.9748L19.7771 12.2003C19.7912 12.0379 19.7388 11.8767 19.632 11.7536L17.1483 8.89248C16.8509 8.5498 17.0251 8.0137 17.4671 7.91132L21.1581 7.05648C21.317 7.01969 21.4541 6.92008 21.5381 6.7804L23.4917 3.53422Z" fill="#FFC400"/>
<path d="M54.4531 3.53422C54.6871 3.14541 55.2508 3.14541 55.4848 3.53422L57.4384 6.7804C57.5224 6.92008 57.6595 7.01969 57.8184 7.05648L61.5093 7.91132C61.9514 8.0137 62.1256 8.5498 61.8281 8.89248L59.3445 11.7536C59.2377 11.8767 59.1853 12.0379 59.1994 12.2003L59.527 15.9748C59.5662 16.4269 59.1102 16.7582 58.6923 16.5812L55.2038 15.1032C55.0537 15.0396 54.8842 15.0396 54.7341 15.1032L51.2456 16.5812C50.8277 16.7582 50.3717 16.4269 50.4109 15.9748L50.7385 12.2003C50.7526 12.0379 50.7002 11.8767 50.5934 11.7536L48.1098 8.89248C47.8123 8.5498 47.9865 8.0137 48.4286 7.91132L52.1196 7.05648C52.2784 7.01969 52.4155 6.92008 52.4996 6.7804L54.4531 3.53422Z" fill="#FFC400"/>
<path d="M70.5791 3.53422C70.8131 3.14541 71.3768 3.14541 71.6108 3.53422L73.5643 6.7804C73.6484 6.92008 73.7855 7.01969 73.9443 7.05648L77.6353 7.91132C78.0774 8.0137 78.2516 8.5498 77.9541 8.89248L75.4705 11.7536C75.3636 11.8767 75.3113 12.0379 75.3254 12.2003L75.6529 15.9748C75.6922 16.4269 75.2362 16.7582 74.8183 16.5812L71.3298 15.1032C71.1797 15.0396 71.0102 15.0396 70.8601 15.1032L67.3716 16.5812C66.9537 16.7582 66.4977 16.4269 66.5369 15.9748L66.8645 12.2003C66.8786 12.0379 66.8262 11.8767 66.7194 11.7536L64.2357 8.89248C63.9383 8.5498 64.1125 8.0137 64.5545 7.91132L68.2455 7.05648C68.4044 7.01969 68.5415 6.92008 68.6255 6.7804L70.5791 3.53422Z" fill="#FFC400"/>
</svg>
