<svg fill="none" height="48" viewBox="0 0 48 48" width="48" xmlns="http://www.w3.org/2000/svg" xmlns:xlink="http://www.w3.org/1999/xlink"><clipPath id="a"><rect height="48" rx="8" width="48"/></clipPath><clipPath id="b"><path d="m15 32h18v18h-18z"/></clipPath><g clip-path="url(#a)"><path d="m0 0h48v48h-48z" fill="#ffc400"/><path d="m23.7178 17.6399c.1248-.073.2086-.2043.2086-.3544 0-.2294-.1914-.4149-.4279-.4149-.2366 0-.428.1855-.428.4149 0 .1542.0882.2876.2151.3585l-3.0666 6.8086v16.5963h6.5676v-16.5963z" fill="#ff655c"/><path d="m20.3217 19.7646h-7.4841v28.749h7.4841z" fill="#ff4338"/><path d="m16.6526 4.90477c.2189-.03127.3878-.21681.3899-.44404 0-.25224-.2022-.45863-.4524-.46071-.0021 0-.0063 0-.0083 0v.49824.00208-.50032c-.2523-.00209-.4566.20013-.4608.45029-.002.22932.1668.42111.3899.45238l-3.6733 14.86181h3.7421 3.742z" fill="#ff4338"/><path d="m17.6033 26.0426v-5.4056c0-.565-.4565-1.0215-1.0215-1.0215-.5649 0-1.0215.4565-1.0215 1.0215v5.4056z" fill="#fff"/><path d="m34.1747 19.7646h-7.484v28.749h7.484z" fill="#ff4338"/><path d="m30.5036 4.90477c.2189-.03127.3877-.21681.3898-.44404.0021-.25224-.2001-.45654-.4503-.46071-.0021 0-.0062 0-.0083 0v.49824.00208-.50032c-.2523-.00209-.4566.20013-.4607.45029-.0021.22932.1667.42111.3898.45238l-3.6732 14.86181h3.742 3.742z" fill="#ff4338"/><path d="m29.4109 26.0426v-5.4056c0-.565.4565-1.0215 1.0215-1.0215.5649 0 1.0215.4565 1.0215 1.0215v5.4056z" fill="#fff"/><path d="m7 46.5136h33.5676v10.4865h-33.5676z" fill="#ff4338"/><path d="m8.45946 37.0271h30.64864l1.4595 9.4865h-33.5676z" fill="#fff"/><path d="m9.91893 25.5408h27.72977l1.4594 11.4865h-30.64863z" fill="#ff4338"/><g clip-path="url(#b)"><path d="m0 0h18v18h-18z" fill="#ff4338" transform="translate(15 32)"/><path d="m8.02686 32h32v13h-32z" fill="#ffc400"/><path d="m19.2019 36.4071s-.0285 0-.0455-.0114c-.0221-.0177-.043-.0367-.0626-.0569l-.0399-.0285-.0398-.0512s-.0399-.0683-.0228-.1138c.0228-.0569.0569-.074.0854-.0911.0284-.0171.091-.0341.091-.0341l.0683-.0285.074-.0171.0342-.017.0512-.0057.0626-.0171.0967.0057h.2903c.0672.0259.1356.0487.2049.0683.0341.0057.1081.0171.1366.0341.0341.0171.0569.0456.0739.0626.0171.0228.0171.0456.0228.0626v.0626l-.0285.0513-.0341.0569-.0455.0398s-.0342.0285-.0626.0285c-.0285 0-.2903-.0513-.4667-.0513-.1707 0-.4439.0513-.4439.0513" fill="#ad1519"/><path d="m19.5718 36.0258c0-.0854.0341-.148.0797-.148.0455 0 .0796.0626.0796.148 0 .0797-.0341.1423-.0796.1423-.0456 0-.0797-.0626-.0797-.1423" fill="#c09400"/><path d="m19.6172 36.0256c0-.074.0171-.1366.0341-.1366.0228 0 .0399.0569.0399.1366 0 .074-.0171.1309-.0399.1309-.017 0-.0341-.0569-.0341-.1309" fill="#c09400"/><path d="m19.5999 35.8719c0-.0285.0228-.057.0512-.057.0285 0 .057.0285.057.057 0 .0284-.0285.0512-.057.0512-.0314 0-.0569-.0255-.0569-.0569" fill="#c09400"/><path d="m19.691 35.8493v.0342h-.0854v-.0342h.0285v-.074h-.0399v-.0341h.0399v-.0342h.0341v.0342h.0342v.0341h-.0342v.074z" fill="#c09400"/><path d="m19.7311 35.8493v.0342h-.1537v-.0342h.0569v-.074h-.0398v-.0341h.0398v-.0342h.0342v.0342h.0341v.0341h-.0341v.074h.0569" fill="#c09400"/><path d="m19.6512 36.3957h-.2845v-.0683l-.0171-.0683-.0114-.0911c-.0797-.1024-.148-.1707-.1707-.1536 0-.0228.0114-.0342.0227-.0456.0683-.0398.2106.057.3187.222l.0285.0398h.2277l.0284-.0398c.1081-.165.2504-.2618.3187-.222.0114.0114.0228.0228.0285.0456-.0285-.0171-.0968.0512-.1708.1536l-.017.0911-.0114.0683-.0057.0683z" fill="#c09400"/><path d="m19.2361 36.5207c-.0091-.0203-.0205-.0394-.0342-.0569.1138-.0399.2732-.0569.4496-.0569.1707 0 .3358.017.4496.0569l-.0341.0512-.0171.0455c-.1025-.0341-.239-.0455-.3984-.0455-.165 0-.3187.0171-.3984.0455z" fill="#c09400"/><path d="m19.651 36.6689c.1188.0004.2372-.013.3529-.0399.0398-.0113.0626-.0284.0569-.0455 0-.0114-.0057-.0171-.0171-.0228-.1298-.0352-.2638-.0524-.3983-.0512-.148 0-.3017.0228-.387.0512-.0114 0-.0171.0114-.0228.0228 0 .0171.0228.0342.0569.0455.0569.0171.2163.0399.3585.0399" fill="#c09400"/><path d="m20.1068 36.3955-.0342-.0285s-.0341.0171-.0739.0114c-.0399-.0057-.0569-.0569-.0569-.0569s-.0456.0398-.0854.0341c-.0342 0-.0569-.0341-.0569-.0341s-.0456.0284-.0797.0284c-.0398 0-.074-.0512-.074-.0512s-.0341.0512-.0683.0569c-.0398 0-.0683-.0341-.0683-.0341s-.017.0341-.0569.0398c-.0512.0057-.091-.0341-.091-.0341s-.0285.0398-.057.0569c-.0341.0057-.0739-.0228-.0739-.0228l-.0114.0285-.0171.0113.0114.0228c.2902-.0693.5928-.0673.8821.0057z" fill="#c09400"/><path d="m19.6511 36.2477h.017c-.0074.019-.0051.0405.0063.0575.0113.017.0302.0274.0507.0278.0341 0 .0569-.017.0682-.0455l.0057-.0227v.0284c.0057.0285.0342.0512.0683.0512.0346 0 .0626-.028.0626-.0626v-.0057l.0228-.0227.0114.0227c-.0043.0089-.0063.0187-.0057.0285 0 .0341.0284.0569.0569.0569.0228 0 .0455-.0057.0569-.0228l.0114-.017v.0227c0 .0171.0114.0342.0285.0399 0 0 .0227 0 .0569-.0228l.0455-.0455v.0284s-.0285.0456-.0569.0626l-.0569.0171c-.0171-.0057-.0285-.0228-.0399-.0398-.0133.0097-.0291.0156-.0455.017-.0341 0-.0683-.0227-.0797-.0569-.0166.0209-.0416.0333-.0683.0342-.028-.0019-.0543-.014-.074-.0342-.0172.0153-.0396.0234-.0626.0228-.0341 0-.0626-.0171-.0796-.0398-.0171.0227-.0456.0398-.0797.0398-.021-.0008-.0411-.0088-.0569-.0228-.0228.0171-.0512.0342-.0797.0342-.0258.0006-.0506-.0098-.0683-.0285-.0114.0285-.0455.0455-.0797.0455-.017 0-.0341 0-.0455-.0113-.0057.017-.0228.0341-.0398.0398-.0202-.0005-.0398-.0064-.0569-.0171-.0224-.0175-.0417-.0386-.057-.0626v-.0284l.0513.0455c.0284.0228.0512.0228.0512.0228.0228 0 .0284-.0228.0284-.0399v-.0227l.0114.017c.0114.0171.0342.0285.0569.0285.0285 0 .0569-.0285.0569-.0569.0035-.0111.0035-.023 0-.0342l.0057-.0227.0228.0227c0 .0399.0285.0683.0569.0683.0399 0 .0683-.0227.0683-.0569v-.0171l.0114.0171c.0114.0285.0341.0455.0626.0455.0398 0 .0683-.0284.0683-.0626-.0003-.0079-.0022-.0156-.0057-.0227z" fill="#c09400"/><path d="m19.6517 36.6347c-.1423 0-.2732-.0114-.37-.0399.1213-.0281.2455-.0414.37-.0398.1422 0 .2674.0171.3699.0398-.1025.0285-.2277.0399-.3699.0399" fill="#ad1519"/><path d="m20.094 36.3267c.0056-.0111 0-.0223 0-.0223-.0111 0-.0223 0-.0279.0112 0 .0111 0 .0222.0112.0278.0056 0 .0167-.0056.0167-.0167" fill="#c09400"/><path d="m19.8154 36.2697c0-.0112 0-.0167-.0111-.0223-.0111 0-.0167.0111-.0167.0223 0 .0111 0 .0167.0111.0222.0056 0 .0167-.0111.0167-.0222" fill="#c09400"/><path d="m19.4858 36.2697c0-.0112 0-.0167.0112-.0223.0111 0 .0167.0111.0167.0223 0 .0111 0 .0167-.0112.0222z" fill="#c09400"/><path d="m19.2072 36.3267c-.0056-.0111 0-.0223.0056-.0223.0055 0 .0167 0 .0222.0112 0 .0111 0 .0222-.0111.0278-.0056 0-.0167-.0056-.0167-.0167" fill="#c09400"/><path d="m19.6516 36.1111-.0513.0285.0399.0797.0114.0114.0113-.0114.0399-.0797-.0569-.0285" fill="#c09400"/><path d="m19.5435 36.2306.0227.0342.074-.0228.0114-.0114-.0114-.0114-.074-.0227z" fill="#c09400"/><path d="m19.7595 36.2306-.0228.0342-.074-.0228-.0113-.0114.0057-.0114.0796-.0227z" fill="#c09400"/><path d="m19.3272 36.1451-.0398.0342.0512.0683.0114.0057.0113-.0114.0171-.0797-.0569-.0171" fill="#c09400"/><path d="m19.2417 36.276.0285.0284.0739-.0398v-.0228h-.0853z" fill="#c09400"/><path d="m19.4577 36.2362-.017.0342-.0797-.0057-.0114-.0114.0057-.0114.074-.0398z" fill="#c09400"/><path d="m19.1619 36.2875v.0398l-.0853.0057h-.0114v-.0171l.0626-.0569z" fill="#c09400"/><path d="m19.3215 36.2583c0-.0223.0112-.0334.0279-.0334s.0278.0111.0278.0279c0 .0153-.0125.0278-.0278.0278-.0154 0-.0279-.0125-.0279-.0278" fill="#c09400"/><path d="m19.9758 36.1451.0398.0342-.0512.0683-.0114.0057-.0114-.0114-.017-.0797.0569-.0171" fill="#c09400"/><path d="m20.0615 36.276-.0341.0284-.0683-.0398-.0057-.0114.0114-.0114h.0796z" fill="#c09400"/><path d="m19.8447 36.2362.0171.0342.0797-.0057.0114-.0114-.0057-.0114-.074-.0398z" fill="#c09400"/><path d="m20.1296 36.2875v.0398l.0854.0057h.0114v-.0171l-.0626-.0569z" fill="#c09400"/><path d="m20.5621 42.7242c-.0789.0013-.157-.0163-.2277-.0512-.0713-.0326-.1493-.0482-.2276-.0456-.0911 0-.1708.0171-.2277.0456-.0703.0367-.1483.0562-.2276.0569-.0794-.0005-.1574-.02-.2277-.0569-.0714-.0324-.1493-.048-.2276-.0456-.0765-.0016-.1523.014-.222.0456-.0569.0341-.1366.0569-.2276.0569v.1366c.0793-.0009.1572-.0204.2276-.057.0713-.0328.1493-.0483.2277-.0455.0769.0002.1527.0177.2219.0512.071.0344.1489.0519.2277.0513.0788.0006.1567-.0169.2276-.0513.0709-.0343.1489-.0519.2277-.0512.0853 0 .1707.0228.2276.0512.0707.0352.1488.0528.2277.0513z" fill="#005bbf"/><path d="m20.5621 42.8606c-.0785.0031-.1565-.0125-.2277-.0455-.0713-.0326-.1493-.0482-.2276-.0455-.0911 0-.1708.017-.2277.0455-.0709.0343-.1488.0519-.2276.0512-.0794-.0005-.1574-.02-.2277-.0569-.0714-.0324-.1493-.048-.2276-.0455-.0854 0-.1651.017-.222.0512-.0709.0343-.1488.0519-.2276.0512v.1366c.0788.0009.1568-.0167.2276-.0512.0712-.0332.1492-.0489.2277-.0456.0764-.0015.1523.014.2219.0456.0703.0369.1483.0564.2277.0569.0793-.0009.1572-.0204.2276-.0569.0714-.0324.1493-.048.2277-.0456.0788-.0008.1567.0167.2276.0513.0709.0343.1488.0518.2277.0512z" fill="#e9e9e9"/><path d="m20.5621 43.0086c-.0794-.0004-.1575-.02-.2277-.0569-.0713-.0326-.1493-.0482-.2276-.0455-.0788-.0007-.1568.0168-.2277.0512-.0708.0346-.1488.0521-.2276.0512-.0794-.0004-.1574-.02-.2277-.0569-.0714-.0324-.1493-.048-.2276-.0455-.0765-.0016-.1523.0139-.222.0455-.0704.0365-.1483.056-.2276.0569v.1366c.0853 0 .1707-.0171.2276-.0512.0712-.033.1493-.0486.2277-.0455.0764-.0016.1523.0139.2219.0455.1434.0711.3119.0711.4553 0 .0714-.0324.1493-.048.2277-.0455.0853 0 .1707.017.2276.0455.0569.0341.1366.0569.2277.0569v-.148" fill="#005bbf"/><path d="m20.5621 43.2874c-.0794-.0002-.1575-.0198-.2277-.0569-.0718-.0305-.1497-.0441-.2276-.0399-.0784-.0024-.1563.0132-.2277.0456-.0708.0345-.1488.0521-.2276.0512-.0794-.0005-.1574-.02-.2277-.0569-.0718-.0305-.1497-.0441-.2276-.0399-.0765-.0015-.1523.014-.222.0456-.0709.0343-.1488.0519-.2276.0512v-.1423c.0788.0007.1567-.0168.2276-.0512.0713-.0328.1493-.0484.2277-.0455.0764-.0016.1523.0139.2219.0455.0569.0341.1366.0569.2277.0569.0792-.0011.1572-.0206.2276-.0569.0714-.0324.1493-.048.2277-.0455.0783-.0025.1562.0131.2276.0455.0569.0341.1366.0569.2277.0569z" fill="#e9e9e9"/><path d="m20.5621 43.4299c-.0794-.0005-.1575-.02-.2277-.057-.0713-.0327-.1492-.0483-.2276-.0455-.0788-.0007-.1568.0169-.2277.0512-.0714.0324-.1493.048-.2276.0456-.0789.0013-.157-.0163-.2277-.0513-.0714-.0324-.1493-.0479-.2276-.0455-.0765-.0016-.1523.014-.222.0455-.0569.0342-.1366.057-.2276.057v-.1423c.0853 0 .1707-.0228.2276-.0569.0718-.0309.1497-.0445.2277-.0399.0764-.0016.1523.014.2219.0456.071.0343.1489.0518.2277.0512.0788.0009.1568-.0167.2276-.0512.0714-.0324.1493-.048.2277-.0456.0783-.0024.1562.0132.2276.0456.0709.0343.1488.0518.2277.0512z" fill="#005bbf"/><path clip-rule="evenodd" d="m19.1622 42.0641h.9789c.0284 0 .0569.0171.0569.0398 0 .0285-.0285.0456-.0569.0456h-.0051c.0091.0015.0184.0014.0275-.0002l-.0057.0341c0 .0854.074.1537.165.1537h-1.3431c.0968 0 .1708-.0683.1708-.1537l-.0114-.0341h.0171c-.0314-.0019-.0566-.0186-.0566-.0454 0-.0227.0285-.0455.0569-.0455zm1.155.6146h-1.326v-.3415h1.326z" fill="#c09400" fill-rule="evenodd"/><path d="m18.8773 40.8575c-.1252.074-.2163.1537-.1992.1935 0 .0342.0455.057.1081.1025.0911.0626.148.1821.1025.2333.0808-.0645.1273-.1626.1262-.266s-.0498-.2005-.1319-.2633" fill="#ad1519"/><path d="m19.1787 42.0072h.9447v-4.644h-.9447z" fill="#e9e9e9"/><path d="m21.097 39.1045c-.311-.1096-.6378-.1673-.9675-.1708-.1527.0034-.3049.0186-.4553.0456-.5634.0967-.9959.3187-.9618.5065v.0114l-.2106-.4952c-.0398-.2048.4382-.4552 1.07-.5577.1842-.0312.3708-.0464.5577-.0455.3984 0 .7512.0512.9618.1309v.5691" fill="#ad1519"/><path d="m19.1789 39.6795c-.2675-.0171-.4439-.0854-.4667-.1992-.017-.0854.074-.1821.2277-.2675.074.0057.1537.0171.239.0171v.4553" fill="#ad1519"/><path d="m20.1292 39.3323c.1594.0228.2846.0569.3415.1138l.0114.0057c.0284.0569-.1138.1878-.3586.3301v-.4553" fill="#ad1519"/><path d="m18.5869 40.5786c-.0228-.074.2276-.2277.5919-.3586.1707-.0569.3016-.1195.4723-.1935.5065-.2276.8765-.478.8309-.5691l-.0057-.0114c.0285.0228.0683.4781.0683.4781.0456.0854-.2959.3415-.7569.5577-.148.074-.461.1878-.6089.2391-.2675.091-.5293.2674-.5065.33z" fill="#ad1519"/><path d="m28.3473 36.2986s-.0455.0455-.074.0569c-.0341 0-.074-.0342-.074-.0342s-.0284.0285-.0626.0399c-.0341.0057-.0797-.0399-.0797-.0399s-.0341.0456-.0683.057c-.0284.0113-.0626-.0114-.0626-.0114s-.0113.0227-.0398.0341h-.0284l-.0342-.0284-.0398-.0399-.0342-.0114-.0171-.0626-.0056-.0341c-.0057-.0398.0512-.0797.1365-.1024.0456-.0114.0854-.0057.1139 0 .0569-.033.1221-.0488.1878-.0456.0632-.0038.1263.01.1821.0399.0524-.0282.1113-.0419.1707-.0399.0854 0 .1537.0171.1878.0456.0392-.0102.0804-.0102.1195 0 .0854.0227.1423.0626.1366.1024v.0341l-.0227.057-.0342.017-.0398.0456-.0342.017s-.017.0114-.0284.0057c-.0285-.0114-.0399-.0341-.0399-.0341s-.0341.0227-.0682.0114c-.0285-.0114-.057-.057-.057-.057s-.0512.0456-.0853.0399c-.0342-.0114-.0626-.0399-.0626-.0399s-.0399.0342-.0683.0285c-.0342 0-.0797-.0512-.0797-.0512" fill="#ad1519"/><g fill="#c09400"><path d="m28.2677 36.0542c0-.0626.0341-.1138.0739-.1138.0456 0 .0797.0512.0797.1138s-.0341.1138-.0797.1138c-.0455 0-.0796-.0512-.0796-.1138"/><path d="m28.3076 36.0541c0-.0569.0171-.1081.0399-.1081.017 0 .0341.0512.0341.1081s-.0171.1025-.0398.1025c-.0171 0-.0342-.0456-.0342-.1025"/><path d="m27.9262 36.5207c-.0073-.02-.0168-.0391-.0285-.0569.1138-.0399.2675-.0569.4439-.0569s.3415.017.4553.0569l-.0341.0512-.0228.0455c-.1024-.0341-.2333-.0455-.3984-.0455-.1593 0-.3187.0171-.3984.0455l-.0113-.0398"/><path d="m28.3419 36.6688c.1423 0 .3016-.0227.3585-.0398.0399-.0114.0569-.0285.0569-.0455 0-.0114-.0113-.0171-.0227-.0228-.128-.0348-.2601-.052-.3927-.0512-.1307-.0001-.2608.0171-.387.0512-.0114 0-.0228.0114-.0228.0228 0 .017.0171.0341.0569.0455.057.0171.2106.0398.3529.0398"/><path d="m28.797 36.3955-.0342-.0285s-.0341.0171-.074.0114c-.0398-.0057-.0569-.0569-.0569-.0569s-.0398.0398-.0796.0341c-.0399 0-.0626-.0341-.0626-.0341s-.0399.0284-.0797.0284c-.0342 0-.0683-.0512-.0683-.0512s-.0398.0512-.074.0569c-.0341 0-.0626-.0341-.0626-.0341s-.0171.0341-.0626.0398-.0854-.0341-.0854-.0341-.0284.0398-.0569.0569c-.0341.0057-.074-.0228-.074-.0228l-.0113.0285-.0228.0113.0114.0228c.2902-.0693.5928-.0673.8821.0057z"/><path d="m28.3472 36.2477h.0114v.0227c0 .0342.0284.057.0626.057.0284 0 .0569-.0114.0626-.0399l.0114-.0227v.0284c0 .0285.0341.0512.0626.0512.0175.0016.035-.0042.048-.0162.013-.0119.0203-.0287.0203-.0464.0001-.0019.0001-.0038 0-.0057l.017-.0227.0114.0227c-.0024.0094-.0024.0192 0 .0285 0 .0341.0228.0569.0569.0569.0217.0029.0432-.0058.0569-.0228l.0057-.017v.0227c0 .0171.0114.0342.0285.0399 0 0 .0227 0 .0569-.0228l.0455-.0455v.0284s-.0284.0456-.0569.0626c-.0114.0057-.0341.0171-.0569.0171-.0171-.0057-.0285-.0228-.0341-.0398-.0134.0097-.0291.0156-.0456.017-.0398 0-.074-.0227-.0853-.0569-.0167.0209-.0417.0333-.0683.0342-.0285 0-.0556-.0125-.074-.0342-.0171.0171-.0399.0228-.0569.0228-.0335.0024-.0658-.0127-.0854-.0398-.0158.0205-.0391.0338-.0647.037-.0257.0032-.0516-.004-.0719-.02-.0184.0217-.0455.0342-.074.0342-.0284 0-.0569-.0114-.0683-.0285-.0113.0285-.0455.0455-.0853.0455-.0171 0-.0285 0-.0456-.0113-.0057.017-.017.0341-.0398.0398-.0201-.0005-.0398-.0064-.0569-.0171l-.0569-.0626v-.0284l.0569.0455c.0228.0228.0455.0228.0455.0228.0228 0 .0285-.0228.0285-.0399v-.0227l.017.017c.0114.0171.0285.0285.0513.0285.0341 0 .0569-.0285.0569-.0569.0035-.0111.0035-.023 0-.0342l.0114-.0227.017.0227c0 .0399.0285.0683.0626.0683.0342 0 .0626-.0227.0683-.0569v-.0171l.0114.0171c.0057.0285.0342.0455.0569.0455.0224.0038.0451-.0049.0592-.0226.0142-.0177.0177-.0417.0091-.0627h.0114"/><path d="m28.1538 36.2362-.0171.0342-.0797-.0057-.0113-.0114v-.0114l.0739-.0398z"/><path d="m27.8581 36.2875-.0057.0398-.0854.0057h-.0114v-.0171l.0683-.0569z"/><path d="m28.0177 36.2583c-.0017-.0083.0004-.0169.0058-.0234.0055-.0065.0135-.0102.022-.01.0154 0 .0278.0125.0278.0279 0 .0153-.0124.0278-.0278.0278s-.0278-.0125-.0278-.0278"/><path d="m28.6661 36.1451.0456.0342-.0569.0683-.0114.0057-.0057-.0114-.0171-.0797.0512-.0171"/><path d="m28.7516 36.276-.0284.0284-.074-.0398v-.0114l.0057-.0114h.0853z"/><path d="m28.5352 36.2362.017.0342.0797-.0057.0114-.0114v-.0114l-.074-.0398z"/><path d="m28.8196 36.2875.0057.0398.0796.0057h.0171v-.0171l-.0683-.0569z"/><path d="m28.3132 36.2297c0-.0167.0167-.0278.0279-.0278.0111 0 .0278.0111.0278.0278 0 .0111-.0111.0223-.0278.0223-.0135.0003-.0252-.0091-.0279-.0223"/><path d="m28.6151 36.2583c-.0017-.0083.0004-.0169.0059-.0234.0054-.0065.0134-.0102.0219-.01.0167 0 .0278.0112.0278.0279s-.0111.0278-.0278.0278c-.0154 0-.0278-.0125-.0278-.0278"/><path d="m28.2908 35.9174c0-.0227.0227-.0455.0569-.0455.0341 0 .0512.0228.0512.0512 0 .0285-.0228.0512-.0569.0512-.0292-.0029-.0514-.0275-.0512-.0569"/><path d="m28.3818 35.9062v.0341h-.0853v-.0341h.0284v-.0797h-.0341v-.0341h.0341v-.0285h.0399v.0285h.0341v.0341h-.0341v.0797z"/><path d="m28.4212 35.9062v.0341h-.1536v-.0341h.0569v-.0797h-.0398v-.0341h.0341v-.0285h.0398v.0285h.0342v.0341h-.0342v.0797h.0569"/><path d="m27.7498 36.3332-.0398-.0456-.0398-.017s.017-.0171.0341-.0171l.0285.0114v-.0114s.0114 0 .017.0227c.0114.0171 0 .0399 0 .0399z"/><path d="m27.7497 36.3158.0278.0055c.0111.0112.0167.0223.0056.0279h-.0279c-.0111-.0112-.0111-.0223-.0055-.0279"/><path d="m28.9281 36.3329.0398-.0455.0398-.0171s-.017-.0171-.0341-.0171c-.0108-.0009-.0213.0033-.0285.0114v-.0114s-.017 0-.0227.0228v.0398z"/><path d="m28.9269 36.3156-.0279.0056c-.0111.0111-.0111.0222-.0055.0278.0055.0111.0167.0056.0278 0 .0111-.0111.0167-.0223.0056-.0278"/><path clip-rule="evenodd" d="m27.8297 36.9988h-.1309-.0057v-.3415h1.3033v.3415h-1.1329l.0001.0001h.9675c.0342 0 .0626.0114.0626.0342 0 .0213-.025.0377-.0516.0396h.0178c-.0399.0114-.057.0398-.057.074 0 .0341.0228.0626.057.074v.0048c.0199.0068.0337.0211.0337.041 0 .0227-.0284.0455-.0569.0455h-.9731c-.0342 0-.057-.0228-.057-.0455 0-.0285.0228-.0456.057-.0456h.9674c.0074 0 .0144.0008.021.0023-.0048-.0015-.0098-.0023-.0149-.0025h-1.0017c.0342-.0114.057-.0399.057-.074 0-.0309-.0234-.0618-.0489-.0759-.0245-.0052-.0425-.0196-.0425-.0377 0-.015.0123-.0275.0287-.0343z" fill-rule="evenodd"/><path clip-rule="evenodd" d="m19.1366 36.9988h-.1309-.0057v-.3415h1.3033v.3415h-1.1329l.0001.0001h.9675c.0342 0 .0626.0114.0626.0342 0 .0213-.025.0377-.0516.0396h.0177c-.0398.0114-.0569.0398-.0569.074 0 .0341.0228.0626.0569.074v.0048c.02.0068.0338.0211.0338.041 0 .0227-.0284.0455-.0569.0455h-.9732c-.0341 0-.0569-.0228-.0569-.0455 0-.0285.0228-.0456.0569-.0456h.9675c.0073 0 .0144.0008.021.0023-.0049-.0015-.0099-.0023-.0149-.0025h-1.0017c.0342-.0114.0569-.0399.0569-.074 0-.0309-.0233-.0618-.0488-.0759-.0245-.0052-.0425-.0196-.0425-.0377 0-.015.0123-.0275.0287-.0343z" fill-rule="evenodd"/></g><path d="m27.437 42.7242c.0911 0 .1707-.0171.2277-.0512.0713-.0326.1492-.0482.2276-.0456.0854 0 .1707.0171.2276.0456.057.0341.1423.0569.2277.0569.0793-.0005.1574-.02.2276-.0569.0714-.0324.1493-.048.2277-.0456.0854 0 .1593.0171.2219.0456.0569.0341.1423.0569.2277.0569v.1366c-.0793-.0009-.1573-.0204-.2277-.057-.0712-.0328-.1492-.0483-.2276-.0455-.0854 0-.1594.0228-.222.0512-.0708.0348-.1488.0523-.2276.0513-.0788.0006-.1567-.0169-.2277-.0513-.0709-.0343-.1488-.0519-.2276-.0512-.0854 0-.1707.0228-.2276.0512-.0707.0352-.1488.0528-.2277.0513z" fill="#005bbf"/><path d="m27.437 42.8607c.0784.003.1565-.0126.2277-.0456.0713-.0326.1492-.0482.2276-.0455.0854 0 .1707.0171.2276.0455.071.0344.1489.0519.2277.0512.0911 0 .1707-.0227.2276-.0569.0714-.0326.1493-.0482.2277-.0455.0771-.002.1535.0156.2219.0512.0709.0346.1488.0521.2277.0512v.1366c-.0789.0009-.1568-.0166-.2277-.0512-.0711-.0332-.1492-.0488-.2276-.0455-.0854 0-.1594.0171-.222.0455-.0702.0369-.1483.0565-.2276.0569-.0793-.0009-.1573-.0204-.2277-.0569-.0713-.0324-.1492-.048-.2276-.0455-.0788-.0009-.1568.0166-.2276.0512-.0707.0352-.1488.0527-.2277.0512z" fill="#e9e9e9"/><path d="m27.437 43.0086c.0911 0 .1707-.0228.2277-.0569.0713-.0326.1492-.0482.2276-.0455.0788-.0007.1567.0168.2276.0512.057.0284.1423.0512.2277.0512.0911 0 .1707-.0228.2276-.0569.0714-.0324.1493-.048.2277-.0455.0854 0 .1593.017.2219.0455.0569.0341.1423.0569.2277.0569v.1366c-.0789.0009-.1568-.0167-.2277-.0512-.0712-.033-.1492-.0486-.2276-.0455-.0765-.0016-.1523.0139-.222.0455-.0702.0369-.1483.0564-.2276.0569-.0793-.0011-.1572-.0206-.2277-.0569-.0713-.0324-.1492-.048-.2276-.0455-.0854 0-.1707.017-.2276.0455-.0702.0371-.1483.0567-.2277.0569v-.148" fill="#005bbf"/><path d="m27.437 43.2874c.0794-.0002.1575-.0198.2277-.0569.0718-.0305.1497-.0441.2276-.0399.0784-.0024.1563.0132.2276.0456.057.0284.1423.0512.2277.0512.0911 0 .1707-.0228.2276-.0569.0719-.0305.1498-.0441.2277-.0399.0854 0 .1593.0171.2219.0456.0569.0284.1423.0512.2277.0512v-.1423c-.0789.0011-.1569-.0164-.2277-.0512-.0712-.0328-.1492-.0484-.2276-.0455-.0765-.0016-.1523.0139-.222.0455-.0702.0369-.1483.0565-.2276.0569-.0793-.0011-.1572-.0206-.2277-.0569-.0713-.0324-.1492-.048-.2276-.0455-.0784-.0025-.1562.0131-.2276.0455-.0703.0369-.1483.0565-.2277.0569z" fill="#e9e9e9"/><path d="m27.437 43.4299c.0911 0 .1707-.0228.2277-.057.0712-.0327.1492-.0483.2276-.0455.0788-.0007.1567.0169.2276.0512.057.0285.1423.0456.2277.0456.0911 0 .1707-.0171.2276-.0513.0714-.0324.1493-.0479.2277-.0455.0854 0 .1593.0171.2219.0455.0569.0342.1423.057.2277.057v-.1423c-.0793-.0007-.1574-.0202-.2277-.0569-.0717-.0309-.1497-.0445-.2276-.0399-.0854 0-.1594.0171-.222.0456-.0708.0347-.1488.0523-.2276.0512-.0788.0009-.1568-.0167-.2277-.0512-.0713-.0324-.1492-.048-.2276-.0456-.0784-.0026-.1563.013-.2276.0456-.0708.0349-.1488.0525-.2277.0512z" fill="#005bbf"/><path clip-rule="evenodd" d="m27.8636 42.0641h.9674c.0342 0 .0626.0171.0626.0398 0 .0268-.0252.0435-.0518.0454h.0177l-.0113.0341c0 .0854.0739.1537.1707.1537h-1.3431c.091 0 .165-.0683.165-.1537.0012-.0113.0012-.0228 0-.0341h.0168c-.0308-.0019-.051-.0186-.051-.0454 0-.0227.0228-.0455.057-.0455zm1.1439.6146h-1.326-.0057v-.3415h1.3317z" fill="#c09400" fill-rule="evenodd"/><path d="m29.1216 40.8575c.1252.074.2162.1537.2048.1935-.0113.0342-.0569.057-.1138.1025-.091.0626-.148.1821-.1024.2333-.0808-.0645-.1274-.1626-.1263-.266s.0498-.2005.132-.2633" fill="#ad1519"/><path d="m27.8691 42.0072h.9505v-4.644h-.9448v4.644z" fill="#e9e9e9"/><path d="m26.9019 39.1045c.4574-.1551.9453-.198 1.4227-.1252.5635.0967.996.3187.9618.5065v.0114s.2106-.4781.2106-.4952c.0399-.2048-.4382-.4552-1.0699-.5577-.1843-.0312-.3709-.0464-.5578-.0455-.3983 0-.7512.0512-.9618.1309v.5691" fill="#ad1519"/><path d="m28.8257 39.6795c.2618-.0171.4382-.0854.4553-.1992.0227-.0854-.0683-.1821-.2277-.2675-.0683.0057-.1479.0171-.2276.0171v.4553" fill="#ad1519"/><path d="m27.8696 39.3323c-.1593.0228-.2845.0569-.3414.1138l-.0114.0057c-.0285.0569.1138.1878.3585.3301v-.4553" fill="#ad1519"/><path d="m29.4115 40.5786c.0228-.074-.2276-.2277-.5918-.3586-.1708-.0569-.3017-.1195-.4724-.1935-.5008-.2276-.8764-.478-.8309-.5691l.0057-.0114c-.0228.0228-.0683.4781-.0683.4781-.0455.0854.2959.3415.7569.5577.148.074.461.1878.609.2391.2674.091.5292.2674.5065.33z" fill="#ad1519"/><path d="m23.9595 34.1019c.387 0 .7399.0569.9561.148.1566.0643.3213.1064.4895.1252.148.0171.2845.0228.3984.0114.165 0 .3926.0455.626.148.1662.0695.3199.1656.4553.2845l-.0968.0854-.0227.2276-.2504.2846-.1253.1138-.3016.2276-.148.0171-.0455.1309-1.9179-.2276-1.9236.2276-.0512-.1309-.148-.0114-.2959-.239-.1252-.1081-.2504-.2846-.0285-.2276-.0911-.0854c.1356-.1187.2893-.2147.4553-.2845.2277-.1025.4553-.148.6204-.148.1138.0114.2504.0057.3983-.0114.1682-.0188.3329-.0609.4895-.1252.2276-.0911.5463-.148.9333-.148z" fill="#ad1519"/><path clip-rule="evenodd" d="m24.0678 35.1093-.0739-.0114-.074.0114c.0277.0861.0119.1804-.0424.2528s-.1403.1139-.2308.1114c-.1219.0024-.2317-.0731-.2732-.1878 0 .0016-.0023-.0056-.0059-.0168-.009-.0278-.0258-.0799-.0339-.0799-.0114 0-.0114.1081-.0114.1081-.0171.1309-.1423.2276-.2845.2276-.074.0016-.1456-.0264-.1989-.0776-.0534-.0512-.0842-.1216-.0857-.1955v-.0342l-.0911-.0854-.0455.1139c.0171.0341.0285.074.0285.1138 0 .148-.1252.2618-.2732.2618-.0898.0009-.1745-.0415-.2277-.1138l-.0569-.074v.091c0 .0854-.0398.1708-.1252.1822 0 0-.1024.0056-.239-.0968-.1309-.1081-.2049-.1935-.2049-.1935l-.0114.1024s.1082.1765.2334.2448c.0626.0398.165.0796.2447.0683.0854-.0171.1423-.0854.1764-.1594.062.0369.1327.0566.2049.0569.1575.0039.3025-.0853.3699-.2276.0831.0849.1979.1314.3168.1282.1188-.0033.2309-.0559.3092-.1453.0789.0682.1803.1047.2846.1024.1368.0038.2666-.0601.3472-.1707.0799.112.2095.1779.3471.1764.105.0007.2065-.0378.2846-.1081.0783.0894.1904.142.3093.1453.1188.0032.2336-.0433.3167-.1282.0675.1423.2125.2315.3699.2276.0721-.0006.1428-.0202.2049-.0569.0285.074.0911.1423.1764.1537.0797.017.1821-.0228.2504-.0626.1139-.0683.2277-.2391.2277-.2391l-.0114-.1081c-.0642.0707-.1347.1354-.2106.1935-.1309.1024-.2333.0968-.2333.0968-.0854-.0114-.1252-.0968-.1252-.1822v-.091l-.0569.074c-.0538.0716-.1381.1138-.2277.1138-.0709.0015-.1396-.0252-.1908-.0743s-.0808-.1166-.0823-.1875c.0001-.0397.0098-.0788.0284-.1138l-.0512-.1139-.0854.0854c.0082.0798-.0183.1592-.0728.218-.0544.0589-.1316.0914-.2117.0893-.1423 0-.2675-.091-.2846-.2276-.0023 0-.0037-.0186-.0053-.0403-.0023-.0307-.0051-.0678-.0118-.0678-.0113 0-.0341.0967-.0341.0967-.0414.1147-.1513.1902-.2732.1878-.0895 0-.1739-.0422-.2276-.1138-.0538-.0717-.0706-.1644-.0456-.2504zm1.7866 1.2291c0-.0215-.0097-.043-.0292-.0572l.0013.0004-.002-.0009c-.0027-.0019-.0055-.0036-.0085-.0052-.0278-.0218-.0186-.074.0275-.1817.057-.148.1423-.1423.1423-.1423-.5065-.1479-1.2122-.2447-1.9976-.2447-.672-.0093-1.3421.0731-1.9919.2447 0 0 .0911-.0057.148.1423.0455.1252.0512.1651.0114.1821.2788-.0757.562-.1327.8477-.1709-.278.0379-.5537.093-.8254.1651-.0287.0101-.0473.0379-.0456.0683-.0057.0341.0114.0683.0456.0683.4609.1422 1.0983.2276 1.8154.2276v.0057c.6089.0056 1.2157-.071 1.8041-.2276.0399-.0114.0569-.0399.0569-.074z" fill="#c09400" fill-rule="evenodd"/><path d="m23.9881 36.5439c-.5617.0037-1.1217-.0613-1.6675-.1935.4439-.1139 1.0244-.1822 1.6675-.1822.5649-.0072 1.1286.0539 1.6788.1822-.4439.1138-1.0301.1935-1.6788.1935" fill="#ad1519"/><path d="m23.9878 35.7069c-.672-.0086-1.342.0738-1.9919.2447-.0285.0114-.0683 0-.0797-.0341-.0052-.0166-.0033-.0347.0054-.0498.0086-.0151.0232-.0259.0401-.0299.5065-.1536 1.2293-.2504 2.0261-.2504.8024 0 1.5309.0968 2.0374.2504.0341.0114.0512.0512.0398.0797-.0113.0341-.0455.0455-.0796.0341-.5066-.1479-1.2123-.239-1.9919-.2447" fill="#c09400"/><path d="m22.0417 36.1108.074-.0967.1935.0285-.1536.1138z" fill="#ad1519"/><path d="m25.9344 36.1108-.0683-.0967-.1935.0285.1594.1138.1081-.0456" fill="#ad1519"/><path d="m22.5422 34.6083.0854.0626.1195-.1935c-.1501-.0898-.2345-.2586-.2163-.4325.0114-.2561.3187-.461.7114-.461.1992 0 .3813.0569.5122.1423l.0114-.1082c-.1603-.0881-.3407-.1332-.5236-.1309-.4553 0-.8024.2505-.8195.5578-.0142.1731.0557.3425.1878.4553l-.0683.1138" fill="#c09400"/><path d="m22.5479 34.6084c-.1464-.099-.2372-.2616-.2447-.4382 0-.1992.1252-.3756.3244-.4894-.1164.0872-.1908.2194-.2049.3642-.0141.1731.0557.3425.1878.4553l-.0569.1138" fill="#c09400"/><path d="m21.1994 34.8134c-.0904-.0976-.1411-.2255-.1423-.3585 0-.0797.0228-.1594.0569-.2277.1196-.2561.5122-.4439.9732-.4439.1252 0 .2504.0114.3586.0399-.0228.0284-.0456.0569-.0569.0853-.0994-.0193-.2004-.0288-.3017-.0284-.4211 0-.774.1707-.8764.387-.0293.0583-.0449.1225-.0455.1878.0011.1328.0617.258.165.3414l-.1537.2505-.0853-.0683.1081-.1708" fill="#c09400"/><path d="m21.3531 33.9712c-.1011.06-.1838.1467-.2391.2504-.0368.0723-.0562.1522-.0569.2333 0 .1366.0569.2618.1423.3586l-.0967.1479c-.0874-.1102-.1354-.2463-.1366-.3869 0-.2448.1536-.461.387-.6033" fill="#c09400"/><path d="m23.9881 33.4363c.0968 0 .1878.0683.2106.1594.0114.0797.0228.1707.0228.2675v.0683c0 .2048.0341.3813.074.4951l-.3131.2959-.313-.2959c.0399-.1138.0683-.2903.074-.4951v-.0683c0-.0968.0114-.1878.0285-.2675.017-.0911.1138-.1594.2105-.1594" fill="#c09400"/><path d="m23.9879 33.5273c.0511.0009.0954.0358.1081.0853.0139.0847.0215.1703.0228.2562v.0626c0 .1935.0285.3642.0683.4666l-.2049.1992-.2049-.1992c.0399-.1024.0683-.2731.0683-.4666v-.0626c0-.0911.0114-.1765.0285-.2562.0114-.0455.0569-.0796.1138-.0796" fill="#c09400"/><path d="m25.4221 34.6084-.0797.0626-.1252-.1935c.1523-.0883.239-.2573.222-.4325-.0114-.2561-.3244-.461-.7114-.461-.1811-.0046-.3595.0449-.5122.1423-.0043-.0363-.01-.0724-.0171-.1082.162-.0891.3444-.1342.5293-.1309.4496 0 .7967.2504.8195.5578.0142.1731-.0557.3425-.1878.4553z" fill="#c09400"/><path d="m25.4163 34.6084c.1536-.1138.2504-.2674.2504-.4382 0-.1992-.1309-.3756-.3244-.4894.1306.0979.2067.2522.2049.4154 0 .1594-.074.3074-.1878.4098l.0569.1081" fill="#c09400"/><path d="m26.7713 34.8134c.1454-.1597.1792-.3917.0854-.5862-.1252-.2561-.5122-.4439-.9789-.4439-.1206-.0001-.2409.0132-.3585.0399.0284.0284.0455.0569.0626.0853.0975-.019.1966-.0285.2959-.0284.4269 0 .7797.1707.8822.387.0284.0569.0455.1195.0455.1878-.0026.1337-.0653.2592-.1708.3414l.1594.2505.0797-.0683-.1025-.1708" fill="#c09400"/><path d="m26.6175 33.9712c.1011.06.1837.1467.239.2504.0366.0724.0561.1522.0569.2333 0 .1366-.0569.2618-.1422.3586l.091.1479c.0894-.1094.1395-.2457.1423-.3869 0-.2448-.1537-.461-.3927-.6033" fill="#c09400"/><path d="m22.5364 35.1378c0-.0683.0569-.1196.1252-.1196.074 0 .1309.0513.1309.1139 0 .0683-.0569.1252-.1309.1252-.067 0-.1222-.0526-.1252-.1195" fill="#ad1519"/><path d="m23.9995 39.8444h2.931v-3.2439h-2.931z" fill="#e9e9e9"/><path d="m24.011 43.5209c-.7455-.0036-1.4807-.1748-2.1512-.5008-.4729-.2277-.7753-.7045-.7797-1.2293v-1.9464h5.8505v1.935c0 .5407-.3074 1.0073-.7797 1.2407-.6668.3243-1.3984.4935-2.1399.4951" fill="#e9e9e9"/><path d="m23.9992 41.7851c-.0089.3774-.1675.7357-.4407.9962-.2733.2604-.6388.4016-1.0162.3924-.8082 0-1.4683-.626-1.4683-1.3886v-1.9407h2.9252v1.935" fill="#ad1519"/><path d="m21.074 39.8444h2.9252v-3.2439h-2.9252z" fill="#ad1519"/><path d="m26.9361 39.8444v1.935c-.0104.3789-.171.7381-.4464.9986-.2754.2604-.643.4008-1.0219.39-.8081 0-1.4683-.626-1.4683-1.3886v-1.935z" fill="#ad1519"/><path d="m23.0603 39.833c0-.5919.4268-1.0699.9447-1.0699s.9505.478.9505 1.0642c0 .5919-.4269 1.0699-.9505 1.0699s-.9447-.478-.9447-1.0642" fill="#ad1519"/><path d="m23.3391 39.8273c0-.4325.3016-.7797.6659-.7797.3699 0 .6715.3472.6715.7797s-.3016.7797-.6658.7797c-.37 0-.6716-.3472-.6716-.7797" fill="#005bbf"/></g></g></svg>